<svg xmlns="http://www.w3.org/2000/svg" xmlns:xlink="http://www.w3.org/1999/xlink" width="500" zoomAndPan="magnify" viewBox="0 0 375 374.999991" height="500" preserveAspectRatio="xMidYMid meet" version="1.0"><defs><g/><clipPath id="15cd64b2cd"><path d="M 5 31 L 334 31 L 334 359 L 5 359 Z M 5 31 " clip-rule="nonzero"/></clipPath><clipPath id="1d0c0a5367"><path d="M 97.144531 -25.25 L 389.535156 122.832031 L 241.453125 415.222656 L -50.9375 267.140625 Z M 97.144531 -25.25 " clip-rule="nonzero"/></clipPath><clipPath id="4d95dd386d"><path d="M 97.144531 -25.25 L 389.535156 122.832031 L 241.453125 415.222656 L -50.9375 267.140625 Z M 97.144531 -25.25 " clip-rule="nonzero"/></clipPath><clipPath id="b1c1a0e739"><path d="M 15 39 L 289 39 L 289 287 L 15 287 Z M 15 39 " clip-rule="nonzero"/></clipPath><clipPath id="c612a2e688"><path d="M 25.105469 31.734375 L 305.0625 58.675781 L 282.359375 294.585938 L 2.402344 267.644531 Z M 25.105469 31.734375 " clip-rule="nonzero"/></clipPath><clipPath id="d36e958ba1"><path d="M 25.105469 31.734375 L 305.0625 58.675781 L 282.359375 294.585938 L 2.402344 267.644531 Z M 25.105469 31.734375 " clip-rule="nonzero"/></clipPath><clipPath id="aad4350129"><path d="M 25.105469 31.734375 L 305.0625 58.675781 L 282.359375 294.585938 L 2.402344 267.644531 Z M 25.105469 31.734375 " clip-rule="nonzero"/></clipPath><clipPath id="3d9c7a7643"><path d="M 31 44 L 260 44 L 260 253 L 31 253 Z M 31 44 " clip-rule="nonzero"/></clipPath><clipPath id="98c07b9863"><path d="M 25.105469 31.734375 L 305.0625 58.675781 L 282.359375 294.585938 L 2.402344 267.644531 Z M 25.105469 31.734375 " clip-rule="nonzero"/></clipPath><clipPath id="42f40bacef"><path d="M 25.105469 31.734375 L 305.0625 58.675781 L 282.359375 294.585938 L 2.402344 267.644531 Z M 25.105469 31.734375 " clip-rule="nonzero"/></clipPath><clipPath id="da3715afac"><path d="M 25.105469 31.734375 L 305.0625 58.675781 L 282.359375 294.585938 L 2.402344 267.644531 Z M 25.105469 31.734375 " clip-rule="nonzero"/></clipPath><clipPath id="16d25d9526"><path d="M 19 59 L 284 59 L 284 265 L 19 265 Z M 19 59 " clip-rule="nonzero"/></clipPath><clipPath id="058ace1978"><path d="M 25.105469 31.734375 L 305.0625 58.675781 L 282.359375 294.585938 L 2.402344 267.644531 Z M 25.105469 31.734375 " clip-rule="nonzero"/></clipPath><clipPath id="9b511d0955"><path d="M 25.105469 31.734375 L 305.0625 58.675781 L 282.359375 294.585938 L 2.402344 267.644531 Z M 25.105469 31.734375 " clip-rule="nonzero"/></clipPath><clipPath id="7effd9dd3c"><path d="M 25.105469 31.734375 L 305.0625 58.675781 L 282.359375 294.585938 L 2.402344 267.644531 Z M 25.105469 31.734375 " clip-rule="nonzero"/></clipPath><clipPath id="039ae4b0e7"><path d="M 81 106 L 277 106 L 277 282 L 81 282 Z M 81 106 " clip-rule="nonzero"/></clipPath><clipPath id="b322d0ad33"><path d="M 25.105469 31.734375 L 305.0625 58.675781 L 282.359375 294.585938 L 2.402344 267.644531 Z M 25.105469 31.734375 " clip-rule="nonzero"/></clipPath><clipPath id="440b3af8f0"><path d="M 25.105469 31.734375 L 305.0625 58.675781 L 282.359375 294.585938 L 2.402344 267.644531 Z M 25.105469 31.734375 " clip-rule="nonzero"/></clipPath><clipPath id="8cd1a9c1c0"><path d="M 25.105469 31.734375 L 305.0625 58.675781 L 282.359375 294.585938 L 2.402344 267.644531 Z M 25.105469 31.734375 " clip-rule="nonzero"/></clipPath></defs><g clip-path="url(#15cd64b2cd)"><g clip-path="url(#1d0c0a5367)"><g clip-path="url(#4d95dd386d)"><path fill="#2f423d" d="M 95.257812 341.179688 C 14.492188 300.277344 -17.574219 201.261719 23.101562 120.945312 C 63.78125 40.628906 162.570312 7.886719 243.339844 48.789062 C 324.105469 89.695312 356.398438 188.257812 315.496094 269.027344 C 274.589844 349.792969 175.574219 381.859375 95.257812 341.179688 Z M 238.769531 57.816406 C 162.964844 19.425781 70.519531 49.710938 32.128906 125.515625 C -6.261719 201.320312 24.023438 293.765625 99.828125 332.15625 C 175.632812 370.546875 268.078125 340.261719 306.46875 264.457031 C 344.859375 188.652344 314.121094 95.976562 238.769531 57.816406 Z M 238.769531 57.816406 " fill-opacity="1" fill-rule="nonzero"/></g></g></g><path fill="#ffffff" d="M 337.859375 320.925781 C 334.714844 323.992188 331.484375 326.96875 328.164062 329.851562 C 324.847656 332.734375 321.453125 335.519531 317.976562 338.207031 C 314.5 340.894531 310.945312 343.480469 307.320312 345.960938 C 303.695312 348.445312 300 350.824219 296.238281 353.09375 C 292.472656 355.367188 288.648438 357.527344 284.761719 359.582031 C 280.875 361.632812 276.929688 363.574219 272.929688 365.398438 C 268.933594 367.226562 264.882812 368.933594 260.785156 370.527344 C 256.6875 372.125 252.546875 373.597656 248.363281 374.953125 C 244.183594 376.3125 239.964844 377.546875 235.710938 378.660156 C 231.453125 379.777344 227.171875 380.765625 222.859375 381.636719 C 218.550781 382.503906 214.214844 383.25 209.863281 383.871094 C 205.507812 384.492188 201.140625 384.984375 196.757812 385.355469 C 192.375 385.726562 187.984375 385.96875 183.585938 386.089844 C 179.1875 386.207031 174.792969 386.199219 170.394531 386.0625 C 165.996094 385.929688 161.609375 385.671875 157.226562 385.285156 C 152.84375 384.898438 148.476562 384.386719 144.125 383.75 C 139.769531 383.117188 135.441406 382.355469 131.128906 381.472656 C 126.820312 380.585938 122.542969 379.578125 118.289062 378.449219 C 114.039062 377.320312 109.824219 376.070312 105.644531 374.699219 C 101.464844 373.324219 97.328125 371.835938 93.234375 370.226562 C 89.140625 368.617188 85.09375 366.894531 81.101562 365.054688 C 77.105469 363.214844 73.167969 361.257812 69.285156 359.191406 C 65.402344 357.125 61.582031 354.949219 57.824219 352.664062 C 54.066406 350.378906 50.378906 347.988281 46.757812 345.492188 C 43.140625 342.996094 39.59375 340.398438 36.125 337.699219 C 32.652344 334.996094 29.261719 332.199219 25.953125 329.308594 C 22.644531 326.414062 19.421875 323.425781 16.28125 320.347656 C 13.144531 317.269531 10.097656 314.101562 7.144531 310.847656 C 4.1875 307.59375 1.328125 304.257812 -1.433594 300.839844 C -4.199219 297.425781 -6.863281 293.929688 -9.425781 290.359375 C -11.988281 286.789062 -14.445312 283.148438 -16.796875 279.4375 C -19.152344 275.726562 -21.394531 271.953125 -23.53125 268.113281 L 44.566406 230.398438 C 45.980469 232.9375 47.460938 235.429688 49.015625 237.882812 C 50.570312 240.335938 52.195312 242.742188 53.890625 245.101562 C 55.582031 247.460938 57.34375 249.769531 59.171875 252.027344 C 60.996094 254.285156 62.886719 256.492188 64.839844 258.640625 C 66.792969 260.792969 68.804688 262.882812 70.878906 264.917969 C 72.953125 266.953125 75.082031 268.925781 77.269531 270.839844 C 79.457031 272.753906 81.699219 274.601562 83.992188 276.386719 C 86.285156 278.167969 88.628906 279.886719 91.019531 281.535156 C 93.414062 283.1875 95.851562 284.765625 98.332031 286.277344 C 100.816406 287.789062 103.339844 289.226562 105.90625 290.589844 C 108.472656 291.957031 111.074219 293.246094 113.714844 294.464844 C 116.355469 295.679688 119.027344 296.820312 121.734375 297.882812 C 124.4375 298.945312 127.171875 299.929688 129.933594 300.835938 C 132.699219 301.742188 135.484375 302.570312 138.292969 303.316406 C 141.101562 304.0625 143.929688 304.730469 146.777344 305.3125 C 149.625 305.898438 152.488281 306.402344 155.367188 306.820312 C 158.242188 307.242188 161.128906 307.578125 164.023438 307.832031 C 166.921875 308.089844 169.820312 308.261719 172.726562 308.347656 C 175.632812 308.4375 178.539062 308.441406 181.445312 308.363281 C 184.351562 308.285156 187.253906 308.125 190.148438 307.882812 C 193.046875 307.636719 195.933594 307.308594 198.808594 306.898438 C 201.6875 306.488281 204.550781 305.996094 207.402344 305.421875 C 210.25 304.847656 213.082031 304.191406 215.890625 303.457031 C 218.703125 302.71875 221.492188 301.902344 224.253906 301.007812 C 227.019531 300.109375 229.757812 299.136719 232.464844 298.082031 C 235.171875 297.027344 237.847656 295.898438 240.492188 294.691406 C 243.132812 293.484375 245.738281 292.203125 248.308594 290.847656 C 250.878906 289.492188 253.40625 288.0625 255.894531 286.5625 C 258.378906 285.058594 260.820312 283.488281 263.21875 281.847656 C 265.613281 280.207031 267.960938 278.496094 270.257812 276.722656 C 272.558594 274.945312 274.800781 273.105469 276.992188 271.199219 C 279.183594 269.292969 281.320312 267.328125 283.398438 265.300781 Z M 337.859375 320.925781 " fill-opacity="1" fill-rule="nonzero"/><g fill="#1bbbf4" fill-opacity="1"><g transform="translate(-1.471502, 268.744984)"><g><path d="M 3.75 5.25 L 36.265625 -18.03125 L 32.859375 -22.8125 L 40.59375 -28.34375 L 53.203125 -10.71875 L 45.46875 -5.1875 L 42.046875 -9.984375 L 9.53125 13.296875 Z M 3.75 5.25 "/></g></g></g><g fill="#1bbbf4" fill-opacity="1"><g transform="translate(13.566416, 289.742757)"><g><path d="M 1.5 1.59375 L 37.5 -32.390625 L 44.265625 -25.21875 L 31.40625 -13.078125 L 34.609375 -9.6875 L 47.46875 -21.828125 L 54.234375 -14.671875 L 18.234375 19.3125 L 11.46875 12.15625 L 27.8125 -3.265625 L 24.609375 -6.65625 L 8.265625 8.765625 Z M 1.5 1.59375 "/></g></g></g><g fill="#1bbbf4" fill-opacity="1"><g transform="translate(35.664633, 312.602897)"><g><path d="M 1.703125 1.375 L 32.703125 -37.21875 L 48.171875 -24.8125 L 42.1875 -17.359375 L 34.59375 -23.453125 L 28.5625 -15.953125 L 35.828125 -10.109375 L 29.96875 -2.8125 L 22.703125 -8.65625 L 15.609375 0.1875 L 23.6875 6.671875 L 17.65625 14.171875 Z M 1.703125 1.375 "/></g></g></g><g fill="#1bbbf4" fill-opacity="1"><g transform="translate(56.064154, 328.531362)"><g/></g></g><g fill="#1bbbf4" fill-opacity="1"><g transform="translate(69.246416, 337.48123)"><g><path d="M 24.34375 -43.15625 L 36.515625 -36.96875 C 39.671875 -35.375 41.59375 -33.300781 42.28125 -30.75 C 42.976562 -28.207031 42.472656 -25.21875 40.765625 -21.78125 L 30.390625 -1.046875 C 28.210938 3.316406 25.796875 6.203125 23.140625 7.609375 C 20.492188 9.015625 17.390625 8.816406 13.828125 7.015625 L 1.953125 0.984375 Z M 16.359375 -1.53125 C 17.960938 -0.71875 19.160156 -1.097656 19.953125 -2.671875 L 31.5 -25.4375 C 32.007812 -26.4375 32.3125 -27.222656 32.40625 -27.796875 C 32.507812 -28.367188 32.394531 -28.84375 32.0625 -29.21875 C 31.738281 -29.601562 31.148438 -30.007812 30.296875 -30.4375 L 29.328125 -30.9375 L 14.8125 -2.3125 Z M 16.359375 -1.53125 "/></g></g></g><g fill="#1bbbf4" fill-opacity="1"><g transform="translate(96.9497, 350.920337)"><g><path d="M 1.625 0.609375 L 19.09375 -45.703125 L 28.03125 -42.328125 L 10.5625 3.984375 Z M 1.625 0.609375 "/></g></g></g><g fill="#1bbbf4" fill-opacity="1"><g transform="translate(111.304792, 356.604314)"><g><path d="M 13.15625 3.90625 C 9.65625 3 7.140625 1.175781 5.609375 -1.5625 C 4.078125 -4.3125 3.8125 -7.601562 4.8125 -11.4375 L 10.5625 -33.5 C 11.800781 -38.257812 13.6875 -41.597656 16.21875 -43.515625 C 18.75 -45.441406 22.035156 -45.878906 26.078125 -44.828125 C 29.617188 -43.910156 32.210938 -42.203125 33.859375 -39.703125 C 35.515625 -37.210938 35.867188 -34.148438 34.921875 -30.515625 L 32.78125 -22.25 L 23.234375 -24.734375 L 25.078125 -31.8125 C 25.429688 -33.195312 25.507812 -34.191406 25.3125 -34.796875 C 25.125 -35.398438 24.613281 -35.8125 23.78125 -36.03125 C 22.9375 -36.25 22.273438 -36.097656 21.796875 -35.578125 C 21.328125 -35.066406 20.941406 -34.234375 20.640625 -33.078125 L 14.390625 -9.046875 C 14.054688 -7.785156 14 -6.816406 14.21875 -6.140625 C 14.445312 -5.472656 14.925781 -5.039062 15.65625 -4.84375 C 17.144531 -4.457031 18.207031 -5.472656 18.84375 -7.890625 L 21.09375 -16.546875 L 30.75 -14.03125 L 28.390625 -4.984375 C 26.296875 3.046875 21.21875 6.007812 13.15625 3.90625 Z M 13.15625 3.90625 "/></g></g></g><g fill="#1bbbf4" fill-opacity="1"><g transform="translate(140.676906, 363.926914)"><g><path d="M 2.171875 0.265625 L 8.140625 -48.875 L 27.828125 -46.484375 L 26.6875 -36.984375 L 17.015625 -38.15625 L 15.84375 -28.609375 L 25.109375 -27.484375 L 23.984375 -18.203125 L 14.71875 -19.328125 L 13.34375 -8.0625 L 23.625 -6.8125 L 22.46875 2.734375 Z M 2.171875 0.265625 "/></g></g></g><g fill="#1bbbf4" fill-opacity="1"><g transform="translate(166.409959, 366.699804)"><g/></g></g><g fill="#1bbbf4" fill-opacity="1"><g transform="translate(182.351088, 367.361524)"><g><path d="M 2.171875 -0.1875 L -2.140625 -49.5 L 7.6875 -50.359375 L 9.234375 -32.734375 L 13.890625 -33.140625 L 12.34375 -50.765625 L 22.15625 -51.625 L 26.46875 -2.3125 L 16.65625 -1.453125 L 14.703125 -23.84375 L 10.046875 -23.4375 L 12 -1.046875 Z M 2.171875 -0.1875 "/></g></g></g><g fill="#1bbbf4" fill-opacity="1"><g transform="translate(214.260465, 364.297444)"><g><path d="M 13.71875 -2.8125 C 9.84375 -1.882812 6.609375 -2.363281 4.015625 -4.25 C 1.421875 -6.144531 -0.390625 -9.238281 -1.421875 -13.53125 L -6.921875 -36.4375 C -7.921875 -40.59375 -7.660156 -43.960938 -6.140625 -46.546875 C -4.628906 -49.140625 -1.9375 -50.898438 1.9375 -51.828125 C 5.832031 -52.765625 9.039062 -52.421875 11.5625 -50.796875 C 14.082031 -49.179688 15.84375 -46.296875 16.84375 -42.140625 L 22.34375 -19.234375 C 23.382812 -14.898438 23.179688 -11.3125 21.734375 -8.46875 C 20.285156 -5.632812 17.613281 -3.75 13.71875 -2.8125 Z M 11.59375 -11.671875 C 12.457031 -11.878906 12.945312 -12.394531 13.0625 -13.21875 C 13.175781 -14.039062 13.070312 -15.117188 12.75 -16.453125 L 7.09375 -39.984375 C 6.84375 -41.035156 6.5 -41.851562 6.0625 -42.4375 C 5.632812 -43.03125 4.988281 -43.222656 4.125 -43.015625 C 2.507812 -42.628906 1.992188 -41.21875 2.578125 -38.78125 L 8.21875 -15.3125 C 8.550781 -13.925781 8.972656 -12.921875 9.484375 -12.296875 C 10.003906 -11.671875 10.707031 -11.460938 11.59375 -11.671875 Z M 11.59375 -11.671875 "/></g></g></g><g fill="#1bbbf4" fill-opacity="1"><g transform="translate(244.555516, 356.748268)"><g><path d="M 12.84375 -4.640625 C 9.0625 -3.128906 5.820312 -3.070312 3.125 -4.46875 C 0.4375 -5.875 -1.742188 -8.679688 -3.421875 -12.890625 L -16.90625 -46.546875 L -7.984375 -50.125 L 5.34375 -16.84375 C 5.925781 -15.382812 6.523438 -14.300781 7.140625 -13.59375 C 7.753906 -12.882812 8.523438 -12.71875 9.453125 -13.09375 C 10.378906 -13.46875 10.828125 -14.113281 10.796875 -15.03125 C 10.765625 -15.945312 10.445312 -17.15625 9.84375 -18.65625 L -3.484375 -51.9375 L 5.453125 -55.515625 L 18.9375 -21.859375 C 20.613281 -17.648438 20.960938 -14.101562 19.984375 -11.21875 C 19.003906 -8.34375 16.625 -6.148438 12.84375 -4.640625 Z M 12.84375 -4.640625 "/></g></g></g><g fill="#1bbbf4" fill-opacity="1"><g transform="translate(272.724813, 345.200464)"><g><path d="M 12.3125 -6.546875 C 8.425781 -4.304688 5.0625 -3.648438 2.21875 -4.578125 C -0.625 -5.515625 -3.285156 -8.132812 -5.765625 -12.4375 L -8.171875 -16.625 L 0.28125 -21.5 L 3.359375 -16.15625 C 4.578125 -14.019531 5.867188 -13.34375 7.234375 -14.125 C 7.992188 -14.5625 8.390625 -15.09375 8.421875 -15.71875 C 8.460938 -16.34375 8.179688 -17.1875 7.578125 -18.25 C 6.765625 -19.65625 5.925781 -20.71875 5.0625 -21.4375 C 4.207031 -22.164062 3.34375 -22.6875 2.46875 -23 C 1.601562 -23.3125 0.132812 -23.738281 -1.9375 -24.28125 L -7.765625 -25.859375 C -12.234375 -27.003906 -15.445312 -29.273438 -17.40625 -32.671875 C -19.507812 -36.328125 -20.269531 -39.59375 -19.6875 -42.46875 C -19.101562 -45.351562 -17.195312 -47.726562 -13.96875 -49.59375 C -10.113281 -51.8125 -6.742188 -52.382812 -3.859375 -51.3125 C -0.984375 -50.25 1.707031 -47.539062 4.21875 -43.1875 L -4.53125 -38.15625 L -6.265625 -41.0625 C -6.585938 -41.632812 -7.003906 -41.992188 -7.515625 -42.140625 C -8.035156 -42.296875 -8.578125 -42.210938 -9.140625 -41.890625 C -9.804688 -41.503906 -10.203125 -41.03125 -10.328125 -40.46875 C -10.453125 -39.90625 -10.332031 -39.3125 -9.96875 -38.6875 C -9.15625 -37.28125 -7.519531 -36.289062 -5.0625 -35.71875 L 2.6875 -33.796875 C 4.507812 -33.328125 6.097656 -32.800781 7.453125 -32.21875 C 8.804688 -31.644531 10.113281 -30.800781 11.375 -29.6875 C 12.632812 -28.582031 13.804688 -27.082031 14.890625 -25.1875 C 17.328125 -20.96875 18.398438 -17.316406 18.109375 -14.234375 C 17.816406 -11.160156 15.882812 -8.597656 12.3125 -6.546875 Z M 12.3125 -6.546875 "/></g></g></g><g fill="#1bbbf4" fill-opacity="1"><g transform="translate(298.133769, 330.253496)"><g><path d="M 1.734375 -1.328125 L -28.375 -40.609375 L -12.640625 -52.671875 L -6.828125 -45.09375 L -14.546875 -39.171875 L -8.6875 -31.53125 L -1.28125 -37.203125 L 4.40625 -29.78125 L -3 -24.109375 L 3.890625 -15.109375 L 12.109375 -21.40625 L 17.96875 -13.765625 Z M 1.734375 -1.328125 "/></g></g></g><path fill="#7a49a9" d="M 191.789062 7.847656 C 191.804688 7.570312 191.84375 7.292969 191.910156 7.023438 C 191.980469 6.753906 192.070312 6.492188 192.191406 6.242188 C 192.308594 5.988281 192.449219 5.75 192.617188 5.527344 C 192.78125 5.300781 192.964844 5.097656 193.171875 4.90625 C 193.378906 4.71875 193.597656 4.554688 193.835938 4.410156 C 194.074219 4.265625 194.324219 4.144531 194.585938 4.046875 C 194.847656 3.953125 195.117188 3.882812 195.390625 3.839844 C 195.667969 3.796875 195.941406 3.78125 196.222656 3.792969 C 199.429688 3.992188 202.628906 4.269531 205.820312 4.628906 C 209.015625 4.992188 212.195312 5.433594 215.367188 5.957031 C 218.539062 6.476562 221.695312 7.082031 224.835938 7.761719 C 227.976562 8.445312 231.097656 9.207031 234.199219 10.050781 C 237.300781 10.890625 240.378906 11.808594 243.433594 12.804688 C 246.488281 13.804688 249.515625 14.878906 252.519531 16.027344 C 255.519531 17.179688 258.488281 18.40625 261.429688 19.707031 C 264.367188 21.011719 267.269531 22.386719 270.140625 23.835938 C 273.007812 25.285156 275.839844 26.804688 278.632812 28.398438 C 281.425781 29.992188 284.175781 31.652344 286.882812 33.386719 C 289.589844 35.117188 292.253906 36.917969 294.871094 38.785156 C 297.488281 40.652344 300.054688 42.585938 302.574219 44.582031 C 305.089844 46.582031 307.558594 48.640625 309.972656 50.765625 C 312.386719 52.886719 314.746094 55.070312 317.050781 57.3125 C 319.351562 59.554688 321.597656 61.855469 323.785156 64.210938 C 325.972656 66.566406 328.097656 68.976562 330.164062 71.441406 C 332.226562 73.90625 334.230469 76.421875 336.167969 78.988281 C 338.105469 81.550781 339.976562 84.164062 341.78125 86.824219 C 343.585938 89.488281 345.320312 92.191406 346.988281 94.941406 C 348.65625 97.6875 350.253906 100.476562 351.777344 103.308594 C 353.304688 106.136719 354.757812 109.003906 356.136719 111.90625 C 357.519531 114.808594 358.824219 117.746094 360.058594 120.714844 C 361.289062 123.683594 362.445312 126.683594 363.523438 129.710938 C 364.601562 132.738281 365.605469 135.792969 366.53125 138.871094 C 367.453125 141.949219 368.300781 145.050781 369.066406 148.171875 C 369.835938 151.292969 370.523438 154.429688 371.128906 157.585938 C 371.738281 160.742188 372.265625 163.914062 372.714844 167.09375 C 373.160156 170.277344 373.527344 173.46875 373.8125 176.671875 C 374.097656 179.871094 374.300781 183.078125 374.421875 186.289062 C 374.546875 189.5 374.585938 192.714844 374.546875 195.925781 C 374.503906 199.140625 374.382812 202.351562 374.179688 205.558594 C 373.976562 208.765625 373.691406 211.964844 373.324219 215.15625 C 373.289062 215.433594 373.222656 215.703125 373.132812 215.964844 C 373.042969 216.226562 372.925781 216.480469 372.785156 216.722656 C 372.644531 216.960938 372.484375 217.1875 372.300781 217.394531 C 372.117188 217.605469 371.914062 217.792969 371.691406 217.964844 C 371.472656 218.132812 371.234375 218.277344 370.988281 218.402344 C 370.738281 218.523438 370.476562 218.625 370.207031 218.695312 C 369.941406 218.769531 369.667969 218.8125 369.386719 218.832031 C 369.109375 218.851562 368.832031 218.84375 368.558594 218.808594 L 306.460938 210.203125 C 306.179688 210.171875 305.902344 210.109375 305.632812 210.019531 C 305.363281 209.933594 305.105469 209.816406 304.859375 209.675781 C 304.613281 209.535156 304.382812 209.375 304.167969 209.1875 C 303.953125 209 303.757812 208.796875 303.585938 208.570312 C 303.410156 208.34375 303.261719 208.105469 303.136719 207.851562 C 303.011719 207.597656 302.910156 207.332031 302.835938 207.058594 C 302.765625 206.785156 302.71875 206.503906 302.703125 206.222656 C 302.683594 205.9375 302.695312 205.65625 302.734375 205.375 C 302.929688 203.410156 303.082031 201.441406 303.179688 199.46875 C 303.28125 197.496094 303.332031 195.523438 303.332031 193.550781 C 303.335938 191.574219 303.289062 189.601562 303.191406 187.628906 C 303.09375 185.65625 302.949219 183.6875 302.753906 181.722656 C 302.558594 179.757812 302.3125 177.800781 302.019531 175.847656 C 301.726562 173.894531 301.386719 171.949219 300.996094 170.011719 C 300.605469 168.078125 300.167969 166.152344 299.683594 164.238281 C 299.195312 162.324219 298.664062 160.421875 298.082031 158.535156 C 297.5 156.644531 296.875 154.773438 296.199219 152.917969 C 295.523438 151.0625 294.804688 149.222656 294.039062 147.402344 C 293.273438 145.582031 292.460938 143.78125 291.605469 142 C 290.75 140.21875 289.851562 138.460938 288.90625 136.726562 C 287.960938 134.992188 286.976562 133.28125 285.949219 131.59375 C 284.917969 129.90625 283.847656 128.246094 282.738281 126.613281 C 281.625 124.980469 280.472656 123.378906 279.28125 121.800781 C 278.089844 120.226562 276.859375 118.683594 275.589844 117.167969 C 274.324219 115.652344 273.015625 114.171875 271.675781 112.722656 C 270.332031 111.273438 268.953125 109.859375 267.539062 108.480469 C 266.128906 107.097656 264.679688 105.753906 263.199219 104.445312 C 261.71875 103.136719 260.207031 101.867188 258.664062 100.632812 C 257.121094 99.402344 255.546875 98.207031 253.945312 97.054688 C 252.34375 95.898438 250.710938 94.785156 249.054688 93.714844 C 247.394531 92.640625 245.710938 91.609375 244 90.621094 C 242.289062 89.632812 240.558594 88.6875 238.800781 87.785156 C 237.042969 86.882812 235.265625 86.023438 233.464844 85.210938 C 231.664062 84.398438 229.847656 83.628906 228.007812 82.90625 C 226.171875 82.183594 224.316406 81.507812 222.445312 80.875 C 220.574219 80.246094 218.6875 79.664062 216.785156 79.125 C 214.886719 78.589844 212.972656 78.101562 211.046875 77.660156 C 209.121094 77.222656 207.1875 76.828125 205.242188 76.484375 C 203.300781 76.140625 201.347656 75.84375 199.386719 75.597656 C 197.429688 75.351562 195.464844 75.15625 193.496094 75.007812 C 193.210938 74.996094 192.933594 74.957031 192.65625 74.890625 C 192.382812 74.820312 192.113281 74.730469 191.855469 74.609375 C 191.601562 74.488281 191.355469 74.34375 191.128906 74.175781 C 190.898438 74.007812 190.691406 73.816406 190.5 73.609375 C 190.308594 73.398438 190.140625 73.171875 189.992188 72.925781 C 189.847656 72.683594 189.726562 72.429688 189.632812 72.160156 C 189.539062 71.890625 189.46875 71.617188 189.429688 71.335938 C 189.390625 71.054688 189.378906 70.773438 189.394531 70.492188 Z M 191.789062 7.847656 " fill-opacity="1" fill-rule="nonzero"/><g fill="#ffffff" fill-opacity="1"><g transform="translate(194.795263, 52.092682)"><g><path d="M 10.957031 3.140625 C 17.527344 3.953125 22.710938 2.492188 25.894531 -1.191406 C 30.957031 -7.097656 30.183594 -13.359375 23.785156 -18.128906 C 23.355469 -18.480469 23.4375 -18.628906 23.785156 -18.730469 C 26 -19.199219 27.445312 -20.246094 29.597656 -22.753906 C 31.476562 -24.976562 31.621094 -26.972656 30.105469 -29.761719 C 28.703125 -32.257812 26.054688 -34.214844 22.148438 -35.578125 C 18.757812 -36.742188 14.0625 -36.777344 11.519531 -35.710938 C 9.03125 -34.632812 11.019531 -32.359375 13.535156 -33.265625 C 14.300781 -33.566406 14.949219 -33.828125 15.167969 -33.84375 C 19.289062 -33.96875 22.554688 -32.992188 25.753906 -30.769531 C 27.933594 -29.226562 28.058594 -26.910156 26.101562 -24.863281 C 21.753906 -20.191406 14.933594 -20.230469 13.203125 -20.324219 C 13.097656 -20.34375 13.148438 -20.9375 13.351562 -21.445312 C 14.582031 -24.007812 16.59375 -28.449219 16.691406 -28.703125 C 17.414062 -30.867188 17.105469 -31.578125 14.664062 -32.570312 L 14.507812 -32.597656 C 13.554688 -32.773438 13.695312 -32.636719 13.082031 -31.382812 C 10.441406 -24.378906 7.875 -19.273438 4.90625 -12.546875 C 3.292969 -8.796875 2.054688 -6.183594 0.777344 -2.480469 C 0.308594 -1.089844 0.710938 -0.308594 2.320312 0.75 C 4.902344 2.476562 8.175781 2.796875 10.957031 3.140625 Z M 6.441406 -0.578125 C 4.664062 -1.007812 4.523438 -0.542969 5.585938 -3.082031 C 7.253906 -7.148438 9.246094 -12.085938 11.289062 -17.011719 C 11.671875 -17.925781 11.308594 -17.71875 11.847656 -17.675781 C 13.609375 -17.464844 15.351562 -17.421875 16.679688 -17.507812 C 19.277344 -17.691406 20.980469 -16.835938 23.070312 -14.816406 C 24.796875 -13.191406 25.25 -10.867188 24.464844 -8.0625 C 23.476562 -4.417969 21.988281 -2.554688 18.863281 -0.992188 C 15.132812 0.894531 11.445312 1.042969 6.496094 -0.566406 Z M 6.441406 -0.578125 "/></g></g></g><g fill="#ffffff" fill-opacity="1"><g transform="translate(222.935038, 57.469661)"><g><path d="M 4.777344 2.121094 C 6.601562 3.402344 9.597656 3.96875 11.230469 3.242188 C 15.851562 1.191406 18.855469 -2.242188 21.082031 -7.953125 C 21.484375 -9.0625 21.097656 -10.058594 20 -10.96875 C 19.03125 -11.773438 17.824219 -11.75 17.679688 -10.71875 L 17.699219 -10.769531 C 17.496094 -10.042969 17.40625 -9.160156 17.035156 -8.609375 C 14.847656 -5.226562 12.695312 -1.945312 9.527344 -0.285156 C 7.824219 0.644531 7.277344 0.734375 6.527344 0.121094 C 5.707031 -0.460938 5.371094 -2.066406 5.691406 -4.066406 C 6.003906 -6.523438 6.652344 -8.171875 8.3125 -10.71875 C 10.605469 -14.234375 12.648438 -17.210938 16.65625 -17.082031 C 17.558594 -17.046875 17.773438 -16.855469 17.929688 -16.167969 C 18.101562 -15.535156 17.710938 -14.933594 17.71875 -14.472656 C 17.734375 -13.726562 18.394531 -12.859375 19.285156 -12.480469 L 19.335938 -12.464844 C 20.144531 -12.171875 21.019531 -12.375 21.40625 -12.976562 C 22.707031 -14.851562 21.136719 -18.101562 18.339844 -19.21875 C 15.714844 -20.335938 13.019531 -19.992188 9.984375 -18.226562 C 7.070312 -16.476562 5.429688 -14.613281 3.101562 -10.367188 C 0.148438 -4.859375 0.636719 -0.972656 4.777344 2.121094 Z M 4.777344 2.121094 "/></g></g></g><g fill="#ffffff" fill-opacity="1"><g transform="translate(240.518434, 63.639)"><g><path d="M 3.304688 2.265625 C 5.054688 4.027344 7.5 4.332031 10.140625 3.101562 L 10.09375 3.074219 L 10.773438 2.820312 C 10.574219 6.113281 14.28125 8.648438 17.882812 7.554688 C 19.863281 7.011719 21.898438 6.011719 23.625 4.789062 C 24.402344 4.222656 24.578125 3.769531 24.40625 2.589844 L 24.359375 2.566406 C 24.15625 1.671875 23.054688 1.460938 21.695312 2.328125 C 20.066406 3.359375 19.414062 3.566406 18.105469 4.097656 C 16.992188 4.605469 15.039062 4.984375 14.402344 4.226562 C 13.976562 3.765625 14.453125 2.617188 14.878906 1.6875 C 16.023438 -0.746094 18.609375 -2.914062 19.859375 -4.503906 C 20.792969 -5.714844 20.753906 -6.339844 19.59375 -7.371094 C 18.527344 -8.347656 17.613281 -8.21875 16.5625 -7.132812 C 14.214844 -4.71875 11.695312 -2.089844 8.445312 -0.390625 C 7.234375 0.191406 6.554688 0.566406 5.808594 0.480469 C 5.210938 0.46875 5.351562 0.542969 5.175781 -0.394531 C 4.882812 -1.699219 5.871094 -3.246094 6.574219 -4.941406 C 8.875 -8.894531 11.878906 -11.871094 15.515625 -13.734375 C 18.933594 -15.410156 19.914062 -15.203125 20.359375 -12.910156 C 20.5625 -12.136719 20.070312 -11.546875 19.820312 -10.949219 C 19.449219 -10.113281 20.03125 -9.023438 21.082031 -8.597656 C 22.085938 -8.195312 22.785156 -8.496094 23.308594 -9.496094 C 24.28125 -11.597656 23.394531 -14.785156 21.214844 -16.648438 L 21.261719 -16.621094 C 20.125 -17.699219 18.5 -18.183594 16.953125 -17.894531 C 14.0625 -17.34375 11.832031 -16.320312 9.46875 -14.460938 C 6.035156 -11.703125 3.300781 -9.128906 1.835938 -4.921875 C 0.898438 -2.078125 1.34375 0.214844 3.304688 2.265625 Z M 3.304688 2.265625 "/></g></g></g><g fill="#ffffff" fill-opacity="1"><g transform="translate(257.977444, 72.814404)"><g><path d="M 25.933594 -12.21875 C 25.597656 -12.773438 24.726562 -13.5 23.761719 -13.898438 C 21.03125 -15.050781 18.777344 -14.511719 16.59375 -13.984375 L 16.367188 -13.941406 C 16.503906 -14.042969 16.59375 -14.175781 16.65625 -14.265625 L 16.746094 -14.398438 C 17.683594 -15.386719 17.621094 -16.34375 16.5 -17.367188 L 16.542969 -17.339844 C 15.011719 -18.90625 14.308594 -17.5 13.886719 -17.070312 C 11.292969 -14.613281 8.816406 -11.941406 6.402344 -9.554688 C 4.09375 -7.226562 1.996094 -5.015625 -0.238281 -2.703125 C -1.429688 -1.433594 -1.558594 -0.675781 -0.464844 0.203125 L -0.507812 0.171875 C 0.613281 1.199219 2.144531 1.335938 2.871094 0.464844 C 4.261719 -1.1875 5.410156 -2.484375 6.4375 -3.414062 C 8.109375 -5.003906 9.183594 -6.289062 10.941406 -7.429688 C 15.207031 -10.242188 19.421875 -12.3125 23.980469 -10.691406 L 23.890625 -10.753906 C 24.734375 -10.371094 25.925781 -10.207031 26.183594 -10.488281 C 26.53125 -10.902344 26.433594 -11.421875 25.933594 -12.21875 Z M 25.933594 -12.21875 "/></g></g></g><g fill="#ffffff" fill-opacity="1"><g transform="translate(269.794193, 80.500652)"><g><path d="M 7.433594 5.792969 C 9.148438 5.800781 10.621094 5.597656 11.816406 5.21875 C 11.316406 7 11.65625 8.808594 12.789062 10.53125 C 13.960938 12.285156 16.429688 13.390625 18.265625 12.9375 C 19.320312 12.71875 20.109375 12.558594 20.855469 12.285156 C 22.601562 11.605469 23.394531 11.519531 24.058594 10.527344 L 24.054688 10.453125 C 24.222656 10.097656 24.628906 9.882812 24.074219 8.890625 L 23.953125 8.78125 C 23.425781 8.242188 22.804688 8.054688 22.136719 8.324219 C 20.316406 9.082031 18.476562 9.535156 16.890625 9.707031 C 15.035156 9.933594 14.402344 8.871094 15.097656 7.191406 C 16.089844 4.691406 18.011719 2.519531 20.976562 0.550781 C 27.117188 -3.632812 31.585938 -7.140625 36.09375 -10.691406 C 37.039062 -11.433594 37.53125 -12.074219 37.902344 -12.894531 C 38.308594 -13.683594 37.980469 -14.691406 37.214844 -15.367188 C 35.960938 -16.625 35.25 -15.742188 34.886719 -15.492188 C 31.109375 -12.519531 27.824219 -10.757812 24.199219 -7.796875 C 23.972656 -10.867188 21.417969 -13.414062 18.3125 -13.148438 C 13.386719 -12.773438 8.398438 -10.296875 4.5625 -6.371094 C 3.199219 -4.992188 2.328125 -3.035156 1.945312 -0.574219 C 1.476562 2.957031 3.976562 5.886719 7.433594 5.792969 Z M 5.296875 1.960938 C 4.984375 1.828125 4.824219 1.6875 4.832031 1.191406 C 4.84375 0.125 5.792969 -1.761719 7.269531 -3.183594 C 10.648438 -6.4375 14.433594 -9.332031 19.214844 -9.625 C 21.339844 -9.753906 21.414062 -9.757812 20.601562 -7.460938 L 20.605469 -7.386719 C 20.460938 -6.652344 20.652344 -5.980469 21.25 -5.597656 C 21.289062 -5.5625 21.027344 -5.507812 20.597656 -5.023438 C 17.960938 -2.046875 13.1875 0.832031 9.363281 1.828125 C 7.597656 2.203125 6.429688 2.386719 5.296875 1.960938 Z M 5.296875 1.960938 "/></g></g></g><g fill="#ffffff" fill-opacity="1"><g transform="translate(285.698785, 94.91459)"><g/></g></g><g fill="#ffffff" fill-opacity="1"><g transform="translate(292.419692, 100.939387)"><g><path d="M 29.707031 15.582031 C 32.101562 14.609375 32.265625 12.746094 30.34375 10.671875 C 28.765625 9.015625 27.308594 7.535156 26.339844 5.527344 L 26.308594 5.484375 C 25.628906 4.191406 24.894531 3.78125 24.242188 4.15625 L 24.285156 4.128906 C 23.484375 4.476562 23.488281 5.25 24.140625 6.691406 C 24.914062 8.3125 25.777344 10.066406 27.113281 11.5625 C 26.894531 11.90625 23.527344 12.496094 22.589844 12.742188 C 17.800781 14.105469 12.742188 13.246094 9.5625 10.664062 C 6.382812 8.078125 6.546875 4.199219 9.945312 0.210938 C 13.875 -4.335938 17.515625 -6.347656 24.0625 -7.601562 C 29.496094 -8.6875 33.109375 -8.339844 37.535156 -6.40625 C 38.851562 -5.804688 40.46875 -4.757812 41.039062 -4.105469 C 42.753906 -2.152344 42.246094 -0.121094 39.929688 0.671875 C 38.679688 1.128906 37.742188 1.375 37.042969 1.394531 C 35.894531 1.328125 35.9375 1.296875 35.808594 1.96875 L 35.777344 1.925781 C 35.632812 2.476562 36.222656 3.441406 37.300781 4.074219 C 39.636719 5.609375 43.636719 4.328125 44.585938 1.605469 C 45.578125 -1.144531 44.613281 -4.582031 42.164062 -7.140625 C 39.328125 -10.085938 35.46875 -11.757812 30.695312 -12.09375 C 18.734375 -12.886719 3.242188 -6.808594 4.085938 6.320312 C 4.277344 9.957031 6.6875 13.324219 10.625 15.394531 C 11.957031 16.117188 13.316406 16.6875 14.421875 16.976562 C 13.890625 17.339844 13.355469 17.699219 12.882812 18.152344 C 11.058594 19.773438 10.5 20.867188 10.515625 22.804688 C 10.507812 23.65625 11.003906 24.484375 11.511719 24.660156 L 11.617188 24.71875 C 12.515625 24.890625 12.765625 24.785156 13.179688 24.050781 C 14.636719 21.507812 17.65625 20.5 20.105469 19.230469 C 23.253906 17.550781 26.660156 16.929688 29.707031 15.582031 Z M 29.707031 15.582031 "/></g></g></g><g fill="#ffffff" fill-opacity="1"><g transform="translate(309.470004, 126.683441)"><g><path d="M 1.175781 3.828125 C 1.453125 6.296875 3.179688 8.058594 6.011719 8.734375 L 5.992188 8.6875 L 6.679688 8.910156 C 4.476562 11.363281 5.800781 15.65625 9.300781 17.039062 C 11.191406 17.84375 13.40625 18.328125 15.519531 18.445312 C 16.480469 18.488281 16.902344 18.242188 17.5 17.210938 L 17.476562 17.160156 C 17.875 16.335938 17.144531 15.484375 15.539062 15.316406 C 13.621094 15.113281 12.984375 14.867188 11.628906 14.472656 C 10.441406 14.175781 8.675781 13.257812 8.648438 12.269531 C 8.601562 11.640625 9.6875 11.039062 10.597656 10.574219 C 13.011719 9.382812 16.382812 9.292969 18.351562 8.824219 C 19.835938 8.457031 20.195312 7.945312 19.925781 6.417969 C 19.703125 4.988281 18.902344 4.519531 17.402344 4.71875 C 14.0625 5.148438 10.457031 5.636719 6.855469 4.949219 C 5.542969 4.648438 4.78125 4.519531 4.25 3.988281 C 3.785156 3.609375 3.851562 3.753906 4.296875 2.910156 C 4.882812 1.707031 6.617188 1.109375 8.21875 0.21875 C 12.480469 -1.445312 16.6875 -1.90625 20.695312 -1.105469 C 24.410156 -0.289062 25.050781 0.484375 23.972656 2.554688 C 23.652344 3.285156 22.898438 3.445312 22.332031 3.757812 C 21.519531 4.179688 21.296875 5.394531 21.851562 6.382812 C 22.390625 7.320312 23.125 7.523438 24.15625 7.0625 C 26.222656 6.023438 27.515625 2.976562 26.964844 0.160156 L 26.988281 0.210938 C 26.765625 -1.339844 25.792969 -2.730469 24.40625 -3.464844 C 21.796875 -4.832031 19.417969 -5.417969 16.410156 -5.433594 C 12.003906 -5.410156 8.261719 -5.09375 4.5 -2.710938 C 1.996094 -1.066406 0.917969 1.003906 1.175781 3.828125 Z M 1.175781 3.828125 "/></g></g></g><g fill="#ffffff" fill-opacity="1"><g transform="translate(317.833814, 143.917715)"><g><path d="M 16.625 29.441406 L 16.613281 29.386719 C 16.515625 27.695312 15.027344 27.738281 14.726562 27.648438 C 12.105469 26.925781 10.695312 26.398438 8.757812 24.449219 C 7.332031 22.980469 7.316406 22.488281 9.101562 21.867188 C 11.535156 20.972656 13.542969 21.015625 16.085938 20.980469 C 19.945312 20.890625 22.550781 21.113281 26.164062 21.140625 C 27.425781 21.097656 28.128906 20.585938 28.738281 19.265625 L 28.699219 19.332031 C 29.164062 18.546875 28.832031 16.800781 28.074219 15.996094 C 27.601562 15.449219 26.976562 14.945312 26.320312 14.554688 C 24.425781 13.429688 22.558594 12.40625 20.707031 11.65625 L 24.707031 11.472656 C 26.191406 11.429688 26.960938 10.734375 27.449219 9.167969 C 27.859375 7.734375 27.070312 5.050781 25.957031 4.167969 C 24.179688 2.84375 22.46875 2.003906 19.804688 1.125 C 19.207031 0.945312 18.539062 0.726562 17.886719 0.558594 C 19.921875 0.488281 22.007812 0.402344 23.960938 0.015625 C 25.054688 -0.261719 25.507812 -0.875 25.515625 -2.152344 L 25.503906 -2.207031 C 25.460938 -3.46875 24.792969 -3.910156 23.609375 -3.777344 C 18.8125 -3.222656 14.039062 -3.453125 9.402344 -2.941406 C 6.976562 -2.660156 4.722656 -2.585938 2.480469 -2.460938 C 1.386719 -2.402344 0.894531 -1.722656 0.730469 -0.183594 C 0.65625 0.832031 1.269531 1.730469 2.25 1.867188 C 4.609375 2.210938 6.667969 2.242188 8.613281 2.472656 C 13.414062 3.027344 17.285156 3.652344 21.21875 5.59375 C 22.550781 6.253906 24.105469 7.355469 24.550781 7.796875 C 23.769531 7.773438 19.398438 7.605469 19.113281 7.570312 C 14.695312 7.636719 12.671875 7.320312 8.4375 7.671875 C 7.289062 7.742188 6.652344 8.515625 6.476562 10 L 6.464844 9.949219 C 6.296875 10.824219 6.964844 11.707031 8.035156 11.988281 C 13.683594 13.273438 19.152344 14.492188 23.957031 16.820312 C 23.851562 16.847656 23.789062 16.808594 23.683594 16.835938 C 18.664062 16.945312 15.402344 16.328125 10.621094 17.15625 C 9.1875 17.410156 8.121094 17.789062 6.9375 18.589844 C 4.753906 20.03125 4.363281 23.957031 6.160156 26.441406 C 8.988281 30.378906 12.078125 30.539062 13.933594 30.84375 C 15.433594 31.074219 16.589844 30.613281 16.625 29.441406 Z M 16.625 29.441406 "/></g></g></g><g fill="#ffffff" fill-opacity="1"><g transform="translate(324.718423, 172.488121)"><g><path d="M 11.21875 18.5 C 11.46875 17.074219 10.085938 16.65625 9.855469 16.511719 C 6.710938 14.46875 5.722656 13.636719 4.117188 11.347656 C 2.027344 8.402344 1.710938 6 3.367188 4.5625 C 4.367188 3.664062 5.929688 3.042969 7.855469 2.820312 C 9.140625 2.710938 10.273438 2.71875 11.039062 2.867188 C 11.535156 2.988281 11.316406 4.191406 11.582031 5.355469 C 12.671875 10.441406 18.167969 14.0625 22.746094 12.746094 C 25.695312 11.894531 26.921875 8.011719 25.132812 5.46875 C 24.273438 4.25 23.265625 3.203125 22.171875 2.4375 C 18.179688 -0.0195312 15.054688 -1.207031 10.171875 -1.535156 C 8.109375 -1.679688 6.6875 -1.285156 5.144531 -1.042969 C 0.636719 -0.109375 -1.347656 4.972656 0.382812 10.59375 C 1.488281 13.953125 3.847656 16.875 7.21875 19.0625 L 7.277344 19.113281 C 8.351562 19.667969 9.011719 19.824219 9.824219 19.863281 C 10.738281 19.835938 11.042969 19.59375 11.21875 18.5 Z M 13.875 3.214844 C 15.792969 3.53125 18.183594 4.347656 19.65625 5.136719 C 20.957031 5.832031 21.953125 6.71875 22.617188 7.523438 C 23.285156 8.382812 23.347656 8.484375 23.113281 8.882812 C 23.019531 9.054688 22.074219 9.351562 21.527344 9.289062 C 19.957031 9.210938 18.105469 8.402344 17.1875 7.78125 C 15.5625 6.464844 14.492188 5.320312 13.972656 3.691406 C 13.832031 3.324219 13.765625 3.167969 13.710938 3.175781 C 13.765625 3.167969 13.769531 3.222656 13.875 3.214844 Z M 13.875 3.214844 "/></g></g></g><g fill="#ffffff" fill-opacity="1"><g transform="translate(326.27997, 189.362102)"><g><path d="M -0.707031 5.300781 C -0.792969 7.988281 0.0703125 9.574219 0.980469 11.433594 C 1.9375 13.453125 4.25 15.085938 6.289062 15.257812 C 10.417969 15.660156 13.492188 13.605469 15.628906 9.050781 C 15.8125 8.410156 16.273438 7.402344 16.738281 6.34375 C 17.199219 5.390625 17.363281 5.285156 18.296875 6.339844 C 19.539062 7.828125 20.128906 9.570312 20.753906 13.570312 C 20.976562 15.082031 21.28125 15.574219 22.152344 15.335938 C 23.394531 15.105469 24.011719 14.265625 23.835938 13.074219 C 23.398438 9.941406 22.6875 5.242188 20.179688 2.902344 C 17.832031 0.675781 14.960938 1.390625 13.734375 4.417969 C 13.265625 5.585938 13.007812 6.921875 12.273438 8.082031 C 10.800781 10.402344 10.082031 11.023438 8.621094 11.246094 C 7 11.460938 5.351562 10.871094 4.632812 9.882812 C 3.238281 8.007812 2.9375 7.40625 2.890625 5.523438 C 2.855469 3.210938 4.011719 2.386719 7.621094 2.125 C 7.894531 2.082031 8.273438 1.929688 8.464844 1.023438 C 8.589844 0.488281 8.449219 -0.160156 7.917969 -0.445312 C 6.125 -1.523438 3.433594 -1.449219 1.621094 -0.21875 C 0.296875 0.761719 -0.632812 2.992188 -0.707031 5.300781 Z M -0.707031 5.300781 "/></g></g></g><g clip-path="url(#b1c1a0e739)"><g clip-path="url(#c612a2e688)"><g clip-path="url(#d36e958ba1)"><g clip-path="url(#aad4350129)"><path fill="#090909" d="M 283.699219 267.597656 C 282.105469 273.644531 277.964844 277.417969 270.660156 279.535156 C 270.128906 279.765625 269.722656 279.894531 269.324219 279.914062 C 267.566406 280.027344 262.472656 280.832031 256.054688 281.90625 C 243.003906 283.976562 225.140625 286.882812 218.109375 286.710938 C 215.96875 286.675781 213.777344 286.632812 211.464844 286.636719 C 205.101562 286.589844 198.457031 286.511719 191.921875 285.882812 C 178.628906 284.605469 169.039062 281.144531 161.84375 275.097656 C 155.171875 269.4375 148.449219 263.152344 144.960938 255.484375 C 141.460938 247.933594 141.488281 239.421875 141.492188 231.191406 C 141.507812 230.460938 141.519531 229.726562 141.480469 228.992188 C 141.472656 215.007812 141.667969 201.832031 142.191406 188.804688 C 135.667969 193.304688 128.402344 196.777344 121.363281 200.21875 L 120.59375 200.59375 C 118.046875 201.871094 115.386719 203.136719 112.835938 204.472656 C 111.703125 205.09375 110.519531 205.714844 109.332031 206.332031 C 106.773438 207.722656 103.921875 209.25 100.976562 210.546875 C 98.726562 211.683594 96.207031 212.679688 93.234375 213.691406 C 92.699219 213.980469 92.109375 214.261719 91.585938 214.433594 C 89.914062 215.402344 87.980469 216.175781 86.078125 216.613281 C 84.117188 217.042969 82.125 217.246094 80.339844 217.074219 C 79.78125 217.019531 79.277344 216.972656 78.835938 216.875 C 74.417969 215.941406 71.144531 213.03125 68.78125 210.660156 C 66.542969 209.320312 64.191406 207.402344 61.785156 204.859375 C 55.148438 198.863281 49.117188 191.800781 43.296875 184.925781 L 40.5625 181.730469 C 33.878906 173.871094 26.9375 165.757812 21.246094 156.925781 C 16.910156 152.785156 14.59375 145.796875 15.40625 139.109375 L 15.414062 139.054688 C 15.464844 132.066406 16.253906 125.039062 17.027344 118.179688 C 17.304688 115.894531 17.523438 113.605469 17.800781 111.320312 C 18.230469 106.851562 18.691406 102.046875 19.257812 96.179688 C 19.382812 94.894531 19.460938 93.492188 19.515625 92.316406 L 19.523438 92.257812 C 19.667969 89.566406 19.820312 86.820312 20.414062 84.167969 C 20.449219 81.464844 21.585938 78.417969 23.304688 76.386719 C 24.320312 75.1875 25.558594 74.628906 26.796875 74.070312 C 27.558594 73.75 28.324219 73.429688 29.03125 73.101562 L 29.617188 72.875 C 29.972656 72.6875 30.324219 72.550781 30.675781 72.414062 C 30.796875 72.3125 30.921875 72.214844 31.050781 72.054688 C 31.472656 71.757812 31.933594 71.632812 32.382812 71.675781 L 32.4375 71.683594 L 32.492188 71.6875 L 32.785156 71.601562 C 32.957031 71.5625 33.074219 71.519531 33.191406 71.472656 C 41.347656 66.957031 50.210938 63.300781 58.722656 59.777344 L 60.429688 59.039062 C 61.777344 58.492188 63.070312 57.941406 64.363281 57.390625 C 68.535156 55.648438 72.726562 53.683594 76.792969 51.820312 L 76.855469 51.769531 C 84.347656 48.316406 92.070312 44.777344 99.996094 42.101562 C 102.316406 40.238281 104.988281 39.421875 107.949219 39.707031 C 115.039062 40.390625 122.011719 47.039062 125.578125 50.988281 C 132.035156 56.515625 137.792969 62.878906 143.285156 69.042969 L 143.386719 69.167969 C 144.457031 70.339844 145.472656 71.507812 146.542969 72.683594 C 152.09375 78.855469 157.886719 84.824219 163.835938 90.980469 C 164.34375 91.535156 164.855469 92.09375 165.359375 92.707031 L 165.464844 92.773438 C 165.722656 93.023438 165.988281 93.214844 166.246094 93.46875 L 166.507812 93.660156 L 166.714844 93.851562 C 166.980469 94.046875 167.238281 94.296875 167.5 94.488281 L 167.605469 94.554688 C 169.664062 95.429688 171.542969 98.148438 172.34375 99.804688 C 173.140625 101.460938 173.382812 103.0625 173.058594 104.664062 C 173.410156 105.714844 173.285156 107 173.199219 107.894531 L 173.195312 107.949219 C 173.167969 108.226562 173.152344 108.394531 173.136719 108.5625 L 173.148438 109.015625 C 173.070312 110.980469 173.027344 113.175781 172.652344 115.339844 C 172.511719 119.722656 171.859375 124.171875 171.269531 128.511719 L 171.246094 128.792969 C 170.851562 131.683594 170.496094 134.246094 170.253906 136.757812 C 170.1875 137.429688 170.128906 138.042969 170.058594 138.769531 C 175.484375 138.050781 180.746094 137.824219 184.996094 137.613281 L 185.105469 137.625 C 186.128906 137.554688 187.089844 137.53125 187.9375 137.5 C 199.15625 136.890625 212.410156 136.25 225.511719 135.988281 C 232.796875 135.84375 239.226562 135.785156 245.195312 135.851562 C 245.59375 135.832031 245.984375 135.871094 246.378906 135.851562 C 248.015625 135.839844 249.757812 135.894531 251.433594 136.058594 C 254.839844 136.386719 257.34375 137.300781 259.332031 138.902344 C 259.488281 139.03125 259.648438 139.160156 259.742188 139.335938 C 267.375 141.425781 271.886719 148.457031 275.507812 154.160156 C 278.007812 158.066406 280.355469 162.351562 282.566406 166.90625 C 282.898438 167.558594 283.226562 168.265625 283.613281 168.921875 C 285.1875 171.894531 286.75 174.976562 286.886719 178.257812 C 288.902344 184.824219 288.460938 191.773438 288.042969 198.441406 C 287.980469 199.675781 287.925781 200.855469 287.863281 202.089844 C 287.367188 212.527344 286.789062 223.804688 286.148438 235.132812 C 285.96875 238.160156 285.953125 241.257812 285.859375 244.574219 C 285.738281 252.289062 285.632812 260.398438 283.699219 267.597656 Z M 283.699219 267.597656 " fill-opacity="1" fill-rule="nonzero"/></g></g></g></g><g clip-path="url(#3d9c7a7643)"><g clip-path="url(#98c07b9863)"><g clip-path="url(#42f40bacef)"><g clip-path="url(#da3715afac)"><path fill="#ffffff" d="M 157.105469 102.90625 C 157.898438 102.867188 158.414062 102.804688 158.921875 102.796875 C 158.898438 103.019531 158.984375 103.3125 159.019531 103.539062 C 159.542969 103.367188 160.015625 103.128906 160.539062 102.953125 L 160.597656 102.960938 L 160.65625 102.910156 C 160.957031 102.710938 161.320312 102.464844 161.683594 102.21875 C 161.542969 101.921875 161.402344 101.628906 161.214844 101.214844 C 161.828125 101.273438 162.34375 101.210938 162.734375 101.246094 C 162.796875 101.199219 162.804688 101.085938 162.867188 101.035156 C 164.011719 99.679688 163.789062 96.726562 151.582031 85.347656 C 150.597656 84.460938 149.773438 83.648438 149.3125 83.15625 C 145.523438 79.183594 141.757812 74.984375 138.449219 71.285156 L 137.484375 70.175781 C 137.128906 69.75 136.714844 69.371094 136.363281 68.941406 C 136.363281 68.941406 136.363281 68.941406 136.3125 68.878906 C 129.585938 61.46875 122.066406 54.089844 113.382812 46.488281 L 113.332031 46.429688 L 113.277344 46.421875 C 111.234375 45.378906 109.316406 44.800781 107.363281 44.613281 C 105.519531 44.4375 103.695312 44.65625 101.894531 45.214844 L 101.839844 45.210938 L 101.78125 45.203125 C 95.5625 48.328125 88.992188 51.019531 82.65625 53.566406 L 82.484375 53.609375 C 77.324219 55.703125 71.457031 58.070312 65.960938 60.699219 C 62.597656 62.292969 59.21875 64 55.785156 65.699219 C 48.5625 69.289062 40.449219 73.355469 32.371094 76.46875 L 32.019531 76.605469 L 31.988281 76.9375 C 31.902344 77.832031 32.023438 78.914062 32.316406 79.957031 L 32.351562 80.1875 L 32.507812 80.316406 C 34.886719 81.953125 37.003906 83.960938 38.867188 85.71875 L 39.179688 85.976562 C 39.851562 86.605469 40.46875 87.226562 41.144531 87.800781 C 44.933594 91.207031 48.683594 95.007812 52.65625 99.394531 L 52.710938 99.398438 L 52.769531 99.40625 C 60.800781 106.152344 67.863281 114.164062 73.148438 122.507812 L 73.25 122.632812 C 74.582031 124 75.90625 125.480469 77.363281 127.3125 L 77.414062 127.375 C 77.515625 127.496094 77.617188 127.617188 77.664062 127.734375 L 77.859375 128.035156 L 78.109375 128.34375 C 78.417969 128.652344 78.722656 129.019531 79.085938 129.339844 C 81.03125 131.386719 83.472656 133.539062 86.402344 134.15625 C 86.402344 134.15625 86.570312 134.175781 86.570312 134.175781 L 86.625 134.179688 C 88.394531 133.957031 90.207031 133.285156 91.957031 132.664062 L 92.894531 132.300781 C 93.480469 132.078125 94.058594 131.90625 94.636719 131.738281 L 94.695312 131.742188 L 94.753906 131.691406 C 100.8125 127.933594 107.515625 125.027344 114.144531 122.339844 C 114.015625 121.929688 113.902344 121.355469 113.652344 120.429688 C 114.808594 120.710938 115.652344 120.734375 116.296875 121.078125 C 116.402344 121.144531 116.445312 121.261719 116.4375 121.375 C 117.667969 120.871094 118.839844 120.421875 120.070312 119.921875 L 121.125 119.515625 C 123.347656 118.65625 125.695312 117.699219 127.871094 116.78125 C 133.972656 114.265625 140.378906 111.558594 147.378906 108.507812 C 148.734375 107.90625 150.089844 107.304688 151.507812 106.59375 L 151.984375 106.359375 C 153.636719 105.558594 155.410156 104.714844 157.234375 103.933594 C 157.292969 103.882812 157.222656 103.480469 157.105469 102.90625 Z M 94.078125 55.570312 C 94.433594 55.378906 94.785156 55.242188 95.195312 55.058594 C 95.40625 52.3125 97.289062 50.296875 99.703125 49.230469 C 99.773438 48.507812 99.789062 47.773438 100.023438 47.0625 C 100.101562 46.847656 100.941406 46.925781 101.453125 46.863281 C 101.511719 47.433594 101.574219 47.945312 101.621094 48.628906 C 103.0625 48.316406 104.640625 48.296875 106.078125 48.605469 C 107.535156 48.6875 109.011719 49.167969 110.285156 49.96875 C 114.066406 51.6875 116.832031 55.164062 115.382812 59.085938 C 114.101562 62.457031 110.515625 63.972656 106.921875 63.851562 C 102.042969 64.738281 96.265625 62.09375 95.355469 56.933594 C 95.019531 56.898438 94.683594 56.867188 94.355469 56.78125 C 94.125 56.8125 93.960938 55.613281 94.078125 55.570312 Z M 100.324219 91.972656 C 100.1875 92.242188 99.574219 92.183594 99.109375 92.304688 C 99.046875 91.792969 98.820312 91.207031 98.917969 90.765625 C 98.996094 90.546875 99.628906 90.4375 100.390625 90.117188 C 100.367188 90.960938 100.535156 91.542969 100.324219 91.972656 Z M 88.363281 94.429688 C 87.636719 94.359375 86.855469 94.285156 86.136719 94.160156 C 85.96875 94.140625 85.949219 93.746094 85.664062 93.210938 C 86.722656 93.3125 87.507812 93.386719 88.226562 93.515625 C 88.339844 93.523438 88.339844 94.089844 88.363281 94.429688 Z M 57.25 88.558594 C 51.917969 89.511719 44.242188 87.25 43.074219 81.21875 C 42.699219 79.265625 43.351562 77.1875 44.632812 75.5625 C 45.183594 74.542969 45.957031 73.546875 47.050781 72.695312 C 51.996094 68.773438 60.785156 71.140625 63.582031 76.652344 C 66.175781 81.921875 62.875 87.523438 57.25 88.558594 Z M 63.191406 88.90625 C 63.128906 88.394531 63.808594 87.78125 64.140625 87.25 C 63.90625 88.523438 63.675781 89.742188 63.601562 89.902344 C 63.894531 90.382812 63.289062 89.648438 63.191406 88.90625 Z M 74.566406 77.316406 C 68.484375 75.488281 64.652344 68.46875 69.386719 63.171875 C 70.777344 61.613281 72.789062 60.625 74.976562 60.160156 C 75.03125 60.164062 75.03125 60.164062 75.09375 60.113281 C 79.691406 59.203125 85.027344 60.5625 87.566406 64.078125 C 90.347656 67.953125 89.035156 73.40625 85.304688 75.246094 C 84.9375 75.550781 84.519531 75.792969 84.050781 75.972656 C 83.992188 76.023438 83.878906 76.011719 83.820312 76.0625 C 81 77.820312 77.691406 78.234375 74.566406 77.316406 Z M 101.636719 121.699219 C 99.738281 127.378906 93.152344 128.4375 87.964844 127.882812 C 82.605469 127.308594 78.339844 123.628906 79.238281 117.796875 C 80.113281 112.242188 86.921875 111.769531 91.355469 111.96875 C 91.800781 112.011719 92.175781 112.21875 92.433594 112.46875 C 92.941406 112.460938 93.5 112.515625 93.949219 112.558594 C 98.667969 113.292969 103.523438 116.128906 101.636719 121.699219 Z M 102.484375 107.007812 C 102.320312 106.992188 102.222656 106.25 101.960938 105.433594 C 102.910156 105.527344 103.53125 105.53125 104.015625 105.746094 C 104.234375 105.824219 104.171875 106.492188 104.246094 106.894531 C 103.675781 106.953125 103.039062 107.117188 102.484375 107.007812 Z M 109.769531 73.484375 C 110.496094 74.738281 111.167969 75.933594 111.894531 77.1875 C 111.324219 77.246094 110.707031 77.242188 109.738281 77.316406 C 109.59375 75.894531 109.429688 74.695312 109.261719 73.492188 C 109.484375 73.515625 109.777344 73.429688 109.769531 73.484375 Z M 107.449219 94.6875 C 107.464844 94.519531 108.558594 94.285156 108.652344 94.464844 C 109.199219 95.25 109.621094 96.136719 110.101562 96.972656 C 109.320312 96.898438 108.589844 96.882812 107.417969 96.769531 C 107.4375 95.984375 107.277344 95.292969 107.449219 94.6875 Z M 111.390625 121.679688 C 111.074219 121.421875 110.960938 120.847656 110.535156 120.015625 C 111.480469 120.164062 112.046875 120.105469 112.363281 120.363281 C 112.621094 120.613281 112.558594 121.226562 112.628906 121.683594 C 112.234375 121.703125 111.707031 121.878906 111.390625 121.679688 Z M 123.765625 111.988281 C 118.949219 114.570312 111.953125 114.066406 108.191406 109.8125 C 103.765625 104.820312 108.335938 98.945312 114.011719 98.53125 C 117.527344 97.125 121.953125 97.4375 125.21875 99.214844 C 131.167969 102.4375 128.875 109.265625 123.765625 111.988281 Z M 145.058594 101.578125 C 144.773438 101.605469 144.488281 101.636719 144.15625 101.601562 C 140.910156 102.53125 137.152344 102.339844 134.414062 100.328125 C 131.09375 97.921875 130.289062 93.390625 132.152344 89.847656 C 132.972656 88.347656 134.148438 87.277344 135.625 86.574219 C 135.339844 86.601562 135.058594 86.574219 134.78125 86.550781 C 134.613281 86.53125 134.5625 85.90625 134.300781 85.09375 C 135.246094 85.242188 135.863281 85.242188 136.351562 85.460938 C 136.457031 85.527344 136.480469 85.867188 136.503906 86.207031 C 140.007812 84.964844 144.554688 85.742188 147.726562 87.90625 C 148.207031 88.179688 148.691406 88.453125 149.113281 88.71875 C 150.21875 89.558594 150.835938 90.742188 151.113281 91.953125 C 151.25 92.304688 151.390625 92.601562 151.46875 92.949219 C 152.472656 97.160156 149.058594 101.003906 145.058594 101.578125 Z M 259.0625 224.914062 C 258.949219 219.039062 258.742188 211.804688 259.105469 208.058594 L 259.113281 207.949219 C 258.484375 192.835938 258.160156 176.285156 258.335938 173.875 C 258.445312 170.953125 258.464844 168.417969 258.417969 165.992188 C 258.394531 164.464844 258.367188 162.996094 258.289062 161.46875 C 258.191406 159.542969 258.15625 157.566406 258.171875 155.648438 C 258.160156 155.195312 258.152344 154.6875 258.15625 154.070312 C 258.152344 151.757812 258.207031 148.265625 257.25 145.917969 C 256.335938 143.6875 254.054688 142.792969 252.832031 142.617188 L 252.777344 142.613281 L 252.71875 142.609375 C 250.023438 142.519531 247.277344 142.367188 244.632812 142.28125 C 239.699219 142.03125 234.589844 141.820312 229.570312 141.847656 C 221.726562 141.9375 213.691406 142.234375 206 142.511719 C 203.796875 142.578125 201.703125 142.660156 199.550781 142.734375 L 197.800781 142.792969 C 188.414062 143.074219 178.691406 143.378906 169.214844 144.609375 C 169.101562 144.597656 168.988281 144.640625 168.8125 144.683594 C 168.128906 144.785156 167.503906 144.835938 166.816406 144.941406 C 166.300781 145.003906 165.84375 145.074219 165.324219 145.191406 C 165.042969 145.222656 164.808594 145.3125 164.523438 145.339844 C 155.167969 147.089844 146.96875 150.867188 147.527344 161.464844 C 147.542969 161.859375 147.457031 162.191406 147.261719 162.453125 L 147.132812 162.609375 L 147.117188 162.777344 C 147.121094 163.34375 147.179688 163.910156 147.179688 164.476562 C 147.34375 168.042969 147.507812 171.613281 147.675781 175.125 C 147.753906 176.652344 147.773438 178.234375 147.851562 179.761719 C 147.878906 180.046875 147.851562 180.328125 147.875 180.667969 C 147.875 181.289062 147.925781 181.914062 147.921875 182.53125 C 147.964844 183.269531 147.949219 184 147.992188 184.738281 C 148.34375 196.894531 148.460938 208.574219 148.246094 220.167969 C 148.214844 222.253906 148.117188 224.441406 148.023438 226.574219 C 147.765625 233.371094 147.488281 240.335938 148.773438 246.886719 L 148.859375 247.179688 L 149.191406 247.265625 C 155.730469 249.585938 162.226562 251.792969 169.429688 252.484375 C 169.765625 252.515625 170.15625 252.554688 170.492188 252.585938 C 177.488281 253.089844 218.519531 252.585938 241.457031 248.535156 C 241.195312 247.71875 240.96875 247.132812 240.804688 246.5 C 242.144531 246.628906 243.574219 246.425781 244.710938 246.929688 C 244.976562 247.070312 245.230469 247.375 245.359375 247.78125 C 251.117188 246.53125 255.210938 245.007812 256.515625 243.160156 L 256.578125 243.109375 L 256.582031 243.054688 C 257.570312 240.386719 258.539062 237.378906 258.898438 233.636719 C 259.246094 232.375 259.179688 228.929688 259.0625 224.914062 Z M 243.371094 143.683594 C 243.894531 143.507812 244.515625 143.511719 245.085938 143.453125 C 245.097656 143.90625 245.316406 144.546875 245.078125 144.691406 C 244.710938 144.996094 244.148438 144.996094 243.332031 145.257812 C 243.351562 144.46875 243.253906 143.726562 243.371094 143.683594 Z M 187.707031 163.300781 C 187.914062 164.109375 188.027344 164.6875 188.140625 165.261719 C 187.210938 164.945312 186.21875 164.738281 185.351562 164.371094 C 185.1875 164.300781 185.25 163.683594 185.167969 163.339844 C 185.960938 163.304688 186.75 163.320312 187.707031 163.300781 Z M 164.363281 180.957031 C 162.835938 179.851562 161.796875 178.34375 161.175781 176.589844 C 160.90625 175.890625 160.753906 175.140625 160.65625 174.398438 C 160.5625 173.601562 160.53125 172.753906 160.613281 171.914062 C 160.671875 171.300781 160.792969 170.632812 160.960938 170.03125 C 161.054688 169.644531 161.207031 169.265625 161.355469 168.882812 C 161.644531 168.234375 161.988281 167.59375 162.441406 166.960938 C 162.519531 166.742188 162.648438 166.585938 162.71875 166.421875 C 162.992188 165.941406 163.261719 165.460938 163.585938 165.039062 C 163.980469 164.457031 164.480469 163.941406 164.980469 163.425781 C 165.597656 162.867188 166.328125 162.316406 167.152344 161.945312 C 167.921875 161.566406 168.679688 161.300781 169.59375 161.164062 C 174.582031 160.289062 178.882812 163.636719 180.480469 168.132812 C 182.214844 170.609375 182.601562 174.199219 181.539062 177.027344 C 179.566406 182.308594 173.804688 185.363281 168.40625 183.488281 C 166.878906 182.949219 165.601562 182.148438 164.570312 181.148438 C 164.519531 181.085938 164.472656 181.023438 164.363281 180.957031 Z M 183.480469 235.34375 C 183.027344 235.976562 182.519531 236.546875 181.957031 237.113281 C 180.796875 238.636719 179.261719 239.957031 177.496094 240.746094 C 171.886719 243.363281 165.550781 240.667969 162.796875 235.328125 C 161.09375 231.949219 160.832031 227.640625 162.296875 224.117188 C 164.261719 219.511719 168.550781 217.105469 173.460938 217.070312 C 177.460938 217.0625 181.539062 219.203125 183.695312 222.566406 C 186.191406 226.527344 186.109375 231.480469 183.480469 235.34375 Z M 192.359375 172.375 C 191.640625 172.8125 190.871094 173.191406 190.101562 173.566406 C 190.046875 173 190.039062 172.492188 189.960938 171.523438 C 190.925781 171.449219 191.609375 171.402344 192.339844 171.414062 C 192.339844 171.414062 192.539062 172.28125 192.359375 172.375 Z M 211.015625 202.867188 C 209.039062 208.148438 203.277344 211.203125 197.878906 209.328125 C 196.351562 208.785156 195.078125 207.988281 194.046875 206.988281 C 193.996094 206.925781 193.882812 206.914062 193.832031 206.851562 C 190.148438 204.128906 189.1875 198.90625 190.875 194.839844 C 191.164062 194.191406 191.507812 193.550781 191.960938 192.917969 C 193.3125 190 195.675781 187.691406 199.0625 187.058594 C 204.050781 186.1875 208.351562 189.53125 209.949219 194.027344 C 211.6875 196.449219 212.074219 200.039062 211.015625 202.867188 Z M 222.597656 163.332031 C 222.886719 162.683594 223.230469 162.039062 223.683594 161.40625 C 225.035156 158.492188 227.402344 156.183594 230.789062 155.550781 C 235.773438 154.679688 240.074219 158.023438 241.671875 162.519531 C 243.40625 164.996094 243.792969 168.585938 242.734375 171.414062 C 240.757812 176.695312 234.996094 179.75 229.597656 177.875 C 228.070312 177.335938 226.796875 176.535156 225.765625 175.535156 C 225.714844 175.472656 225.601562 175.460938 225.550781 175.402344 C 221.816406 172.617188 220.855469 167.394531 222.597656 163.332031 Z M 223.304688 232.128906 C 220.128906 228.214844 219.957031 223.011719 221.851562 218.515625 C 224.054688 213.199219 229.164062 210.480469 234.761719 212.089844 C 236.570312 212.601562 238.324219 213.726562 239.769531 215.109375 C 242.265625 216.699219 244.164062 219.195312 244.691406 222.515625 C 245.121094 225.09375 244.632812 227.808594 243.503906 230.183594 C 243.4375 230.289062 243.425781 230.398438 243.363281 230.449219 C 241.972656 233.191406 239.613281 235.445312 236.648438 236.402344 C 231.828125 237.855469 226.480469 236.042969 223.304688 232.128906 Z M 239.402344 241.742188 C 239.128906 241.65625 239.019531 241.027344 238.605469 240.085938 C 240.253906 240.523438 241.359375 240.746094 242.394531 241.125 C 242.613281 241.203125 242.601562 241.878906 242.675781 242.28125 C 241.566406 242.117188 240.503906 242.015625 239.402344 241.742188 Z M 243.902344 238.339844 C 243.824219 238.558594 243.148438 238.546875 242.507812 238.769531 C 242.464844 238.03125 242.246094 237.390625 242.441406 237.128906 C 242.691406 236.871094 243.308594 236.871094 243.769531 236.804688 C 243.832031 237.316406 244.007812 237.84375 243.902344 238.339844 Z M 243.902344 238.339844 " fill-opacity="1" fill-rule="nonzero"/></g></g></g></g><g clip-path="url(#16d25d9526)"><g clip-path="url(#058ace1978)"><g clip-path="url(#9b511d0955)"><g clip-path="url(#7effd9dd3c)"><path fill="#1bbbf4" d="M 81.5625 165.097656 C 81.953125 158.707031 82.363281 152.09375 83.589844 145.785156 L 83.609375 145.617188 L 83.511719 145.4375 C 81.445312 141.125 79.054688 137.285156 76.941406 134.039062 L 76.894531 133.976562 L 76.84375 133.914062 C 73.492188 130.660156 70.988281 126.8125 69.496094 124.128906 L 69.445312 124.070312 L 69.398438 124.007812 C 62.730469 117.726562 56.378906 110.519531 50.550781 102.519531 L 50.449219 102.394531 C 46.320312 98.445312 42.113281 94.714844 37.992188 91.273438 C 36.6875 90.191406 35.261719 89.207031 33.890625 88.230469 L 33.894531 88.171875 C 32.417969 87.128906 30.9375 86.085938 29.527344 84.933594 L 29.371094 84.804688 L 29.148438 84.785156 C 27.34375 84.78125 26.074219 85.109375 25.054688 85.742188 L 24.8125 85.890625 L 24.785156 86.167969 C 24.746094 88.363281 24.40625 90.699219 24.101562 92.699219 C 23.933594 93.867188 23.742188 95.257812 23.621094 96.542969 C 23.121094 101.738281 22.640625 106.710938 22.164062 111.683594 C 22.007812 113.300781 21.90625 114.925781 21.75 116.546875 L 21.613281 118.5625 C 21.113281 124.941406 20.59375 131.488281 19.535156 137.816406 L 19.53125 137.871094 L 19.523438 137.925781 C 19.464844 141.472656 19.808594 144.324219 20.628906 146.941406 C 21.273438 149.035156 22.339844 150.828125 23.21875 152.265625 L 23.210938 152.320312 L 23.261719 152.382812 C 27.371094 157.117188 31.332031 162.234375 34.84375 166.746094 L 35.148438 167.113281 C 38.15625 171.011719 41.269531 174.976562 44.402344 178.714844 C 47.589844 182.519531 51.109375 186.351562 54.21875 189.753906 C 58.402344 194.328125 62.691406 198.96875 66.5625 203.851562 L 66.609375 203.914062 L 66.820312 204.101562 C 67.183594 204.417969 67.496094 204.675781 67.808594 204.929688 C 68.074219 205.125 68.386719 205.378906 68.695312 205.691406 C 70.101562 206.898438 71.566406 208.054688 72.617188 208.269531 C 72.785156 208.285156 72.953125 208.300781 73.066406 208.3125 C 75.074219 208.503906 75.886719 207.117188 76.933594 205.019531 C 77.136719 204.644531 77.347656 204.214844 77.558594 203.78125 C 77.558594 203.78125 77.566406 203.726562 77.625 203.675781 L 77.6875 203.625 C 77.6875 203.625 77.769531 203.351562 77.773438 203.296875 L 77.78125 203.238281 L 77.785156 203.183594 C 77.71875 200.359375 78.042969 197.570312 78.414062 194.902344 C 79.363281 187.378906 80.074219 181.753906 80.617188 176.675781 C 81.023438 173.050781 81.277344 169.242188 81.460938 165.59375 Z M 36.332031 111.46875 C 36.015625 111.832031 35.648438 112.132812 35.179688 112.316406 C 33.304688 113.035156 31.261719 111.429688 30.273438 109.980469 C 30.179688 109.804688 30.082031 109.625 29.929688 109.441406 C 29.78125 109.257812 29.679688 109.136719 29.582031 108.957031 C 27.253906 105.632812 24.46875 96.511719 29.484375 94.175781 C 35.386719 91.417969 38.519531 99.273438 38.363281 103.824219 C 38.359375 103.882812 38.359375 103.882812 38.351562 103.9375 C 38.40625 104.5625 38.390625 105.292969 38.316406 106.078125 C 38.363281 108.503906 37.820312 110.652344 36.332031 111.46875 Z M 42.253906 151.277344 C 42.328125 151.679688 42.40625 152.027344 42.542969 152.375 C 42.40625 152.027344 42.332031 151.625 42.253906 151.277344 Z M 53.132812 155.933594 C 51.992188 159.601562 48.097656 161.988281 45.039062 158.648438 C 44.324219 157.847656 43.496094 155.90625 42.824219 153.53125 C 42.925781 153.652344 43.027344 153.777344 43.070312 153.894531 C 43.917969 153.296875 44.398438 153.007812 44.882812 152.660156 C 43.96875 152.175781 43.117188 151.644531 42.207031 151.160156 C 41.195312 146.441406 40.929688 141 43.222656 139.417969 C 43.734375 138.792969 44.453125 138.351562 45.527344 138.34375 C 49.367188 138.261719 51.304688 143.917969 52.027344 146.917969 C 53.511719 149.65625 54.09375 152.980469 53.132812 155.933594 Z M 73.539062 193.417969 C 73.230469 194.289062 72.714844 194.972656 72.046875 195.472656 C 71.109375 196.398438 69.765625 196.886719 68.058594 196.496094 C 64.960938 195.859375 63.703125 192.527344 62.921875 189.519531 C 61.84375 187.273438 61.296875 184.738281 61.570312 182.511719 C 61.617188 182.007812 61.765625 181.628906 61.914062 181.246094 C 61.914062 181.246094 61.921875 181.191406 61.921875 181.191406 C 61.992188 181.03125 62.070312 180.8125 62.191406 180.710938 C 63.1875 177.988281 66.15625 176.414062 68.839844 178.417969 C 71.207031 180.167969 72.636719 183.464844 73.359375 186.519531 C 74.085938 188.902344 74.242188 191.398438 73.539062 193.417969 Z M 278.613281 257.183594 L 278.65625 256.171875 L 278.675781 255.949219 C 278.796875 255.285156 278.886719 252.585938 279.0625 249.617188 C 276.945312 254.035156 273.996094 243.660156 275.46875 236.585938 C 277.257812 227.960938 278.882812 231.558594 279.683594 236.707031 L 279.738281 236.148438 L 279.75 236.039062 C 279.757812 235.925781 279.769531 235.816406 279.78125 235.703125 C 279.796875 235.535156 279.808594 235.421875 279.761719 235.304688 C 279.949219 231.601562 280.179688 227.453125 280.441406 222.96875 C 280.152344 223.054688 279.75 223.128906 279.347656 223.203125 C 279.328125 222.242188 279.328125 221.675781 279.324219 221.113281 C 279.71875 221.09375 280.171875 221.082031 280.570312 221.0625 C 280.941406 214.839844 281.308594 208.109375 281.730469 201.386719 C 281.882812 199.203125 282.09375 197.023438 282.320312 194.675781 C 282.625 191.492188 283 188.203125 283.082031 184.996094 C 283.125 182.800781 282.492188 180.597656 281.28125 178.507812 C 280.597656 177.425781 280.152344 176.199219 279.59375 174.964844 C 279.367188 174.378906 279.144531 173.792969 278.863281 173.203125 C 277.296875 169.554688 275.550781 166.003906 273.730469 162.671875 C 273.296875 161.898438 272.871094 161.066406 272.445312 160.234375 C 270.105469 155.839844 267.488281 150.796875 263.957031 147.074219 L 263.140625 146.203125 L 262.972656 147.371094 C 262.777344 148.820312 262.585938 150.210938 262.394531 151.601562 C 262.050781 153.992188 261.710938 156.382812 261.476562 158.785156 C 261.125 162.472656 260.875 166.226562 260.628906 169.359375 C 260.617188 171.839844 260.492188 174.308594 260.386719 176.554688 C 260.289062 179.363281 260.5625 187.058594 260.945312 195.945312 C 261.085938 199.171875 261.214844 202.511719 261.347656 205.851562 L 261.335938 205.964844 L 261.378906 206.082031 C 261.375 206.136719 261.425781 206.199219 261.425781 206.199219 C 261.855469 208.777344 263.460938 228.382812 263.265625 231.578125 L 263.257812 231.6875 C 263.488281 232.78125 263.609375 233.863281 263.730469 234.949219 C 263.875 236.371094 264.070312 237.855469 264.445312 239.246094 C 264.886719 241.09375 265.570312 242.792969 266.25 244.492188 C 266.886719 246.078125 267.519531 247.714844 267.929688 249.335938 C 267.921875 249.390625 267.972656 249.449219 267.96875 249.507812 L 267.953125 249.675781 C 267.953125 249.675781 268.636719 250.753906 268.929688 251.234375 C 269.082031 251.417969 269.175781 251.597656 269.320312 251.835938 C 269.378906 251.839844 269.433594 251.847656 269.484375 251.90625 C 269.644531 251.980469 269.730469 252.269531 269.761719 252.554688 C 270.203125 253.21875 270.640625 253.9375 271.085938 254.597656 C 271.625 255.441406 272.21875 256.289062 272.761719 257.074219 L 272.8125 257.132812 L 272.863281 257.195312 C 272.964844 257.316406 273.070312 257.382812 273.113281 257.558594 C 273.105469 257.613281 273.15625 257.675781 273.15625 257.675781 L 273.152344 257.730469 L 273.195312 257.847656 C 274.324219 259.589844 275.644531 261.691406 276.71875 263.992188 C 276.769531 264.054688 276.765625 264.109375 276.765625 264.109375 L 277.84375 264.046875 C 278.492188 261.964844 278.558594 259.546875 278.613281 257.183594 Z M 269.390625 186.101562 C 266.59375 191.132812 263.976562 183.214844 263.6875 180.929688 C 263.3125 177.792969 263.570312 174.546875 263.980469 171.429688 C 264.226562 169.480469 264.644531 166.308594 266.398438 165.066406 C 267.972656 163.921875 268.84375 164.851562 269.363281 166.480469 C 269.640625 166.507812 269.960938 166.707031 270.039062 167.050781 C 271.070312 170.421875 271.074219 173.863281 270.804688 177.273438 C 270.65625 179.964844 270.75 183.695312 269.390625 186.101562 Z M 272.996094 234.148438 C 270.632812 247.566406 264.363281 233.089844 266.539062 223.941406 C 268.824219 214.238281 271.164062 218.636719 272.390625 224.617188 C 271.605469 225.164062 270.828125 225.652344 270.042969 226.195312 C 271.007812 226.683594 271.921875 227.167969 272.890625 227.652344 C 273.148438 230.214844 273.25 232.707031 272.996094 234.148438 Z M 272.332031 224.667969 C 272.398438 225.125 272.523438 225.589844 272.585938 226.101562 C 272.523438 225.589844 272.457031 225.132812 272.332031 224.667969 Z M 277.148438 199.195312 C 273.894531 200.238281 273.734375 194.867188 273.636719 192.9375 C 273.410156 188.859375 273.339844 183.71875 275.707031 180.226562 C 275.898438 179.964844 276.242188 179.941406 276.503906 180.132812 C 279.953125 181.761719 280.246094 186.921875 280.375 190.261719 C 280.414062 192.800781 280.351562 198.152344 277.148438 199.195312 Z M 73.851562 60.726562 C 73.917969 60.621094 73.984375 60.515625 74.046875 60.464844 C 74.335938 60.378906 74.683594 60.300781 74.972656 60.214844 C 75.027344 60.21875 75.027344 60.21875 75.089844 60.167969 C 75.378906 60.085938 75.71875 60.0625 76.066406 59.980469 C 76.15625 60.214844 76.195312 60.386719 76.128906 60.496094 C 75.746094 60.964844 74.992188 61.175781 74.351562 61.394531 C 74.183594 61.378906 73.785156 60.832031 73.851562 60.726562 Z M 142.234375 94.597656 C 141.460938 95.027344 140.683594 95.515625 139.734375 95.988281 C 139.21875 95.488281 138.855469 95.171875 138.546875 94.859375 C 139.269531 94.367188 139.898438 93.695312 140.707031 93.492188 C 141.113281 93.359375 141.710938 94.207031 142.234375 94.597656 Z M 68.597656 190.292969 C 68.238281 190.539062 67.859375 190.953125 67.523438 190.921875 C 67.132812 190.882812 66.722656 190.449219 65.929688 189.921875 C 66.808594 189.554688 67.292969 189.207031 67.679688 189.300781 C 68.066406 189.394531 68.296875 189.921875 68.597656 190.292969 Z M 72.597656 189.152344 C 72.046875 189.609375 71.488281 190.117188 70.894531 190.457031 C 70.777344 190.5 70.324219 189.949219 69.027344 188.753906 C 70.195312 188.359375 70.90625 187.976562 71.644531 187.933594 C 71.921875 187.960938 72.242188 188.726562 72.597656 189.152344 Z M 240.316406 222.882812 C 239.867188 222.277344 239.402344 221.835938 239.433594 221.503906 C 239.464844 221.167969 240.0625 220.832031 240.429688 220.527344 C 240.726562 220.949219 241.199219 221.335938 241.324219 221.796875 C 241.355469 222.027344 240.761719 222.363281 240.316406 222.882812 Z M 242.285156 225.835938 C 241.289062 226.246094 240.285156 226.714844 239.238281 227.066406 C 239.003906 227.15625 238.542969 226.660156 237.699219 226.070312 C 239.328125 225.550781 240.375 225.203125 241.46875 224.96875 C 241.703125 224.878906 242.035156 225.53125 242.285156 225.835938 Z M 227.539062 216.242188 C 227.765625 216.828125 228.046875 217.417969 228.683594 219.003906 C 228.28125 219.078125 227.636719 219.351562 227.144531 219.191406 C 226.871094 219.109375 226.4375 218.335938 226.523438 218.003906 C 226.695312 217.402344 227.203125 216.828125 227.539062 216.242188 Z M 243.507812 230.125 C 243.441406 230.234375 243.429688 230.34375 243.371094 230.394531 C 243.371094 230.394531 243.363281 230.449219 243.308594 230.445312 C 243.257812 230.382812 243.207031 230.324219 243.101562 230.257812 C 243.269531 230.273438 243.390625 230.171875 243.507812 230.125 Z M 271.324219 221.074219 C 271.011719 221.382812 270.695312 221.75 270.195312 222.265625 C 269.796875 221.71875 269.28125 221.21875 269.351562 221.054688 C 269.503906 220.675781 270.046875 220.277344 270.386719 220.253906 C 270.730469 220.230469 271.015625 220.765625 271.324219 221.074219 Z M 267.019531 228.894531 C 266.765625 229.207031 266.449219 229.570312 266.136719 229.878906 C 266.082031 229.253906 266.09375 228.578125 266.09375 227.957031 C 266.152344 227.964844 266.152344 227.964844 266.210938 227.914062 C 266.386719 227.875 267.082031 228.84375 267.019531 228.894531 Z M 267.019531 228.894531 " fill-opacity="1" fill-rule="nonzero"/></g></g></g></g><g clip-path="url(#039ae4b0e7)"><g clip-path="url(#b322d0ad33)"><g clip-path="url(#440b3af8f0)"><g clip-path="url(#8cd1a9c1c0)"><path fill="#7a49a9" d="M 167.804688 111.828125 L 167.816406 111.714844 L 167.824219 111.605469 C 167.710938 110.464844 167.554688 109.152344 167.335938 107.894531 L 167.308594 107.609375 L 167.039062 107.46875 C 166.339844 107.121094 165.457031 106.921875 164.394531 106.820312 C 163.335938 106.71875 162.429688 106.742188 161.972656 106.8125 L 161.863281 106.800781 L 161.746094 106.847656 C 158.628906 108.746094 155.214844 110.277344 151.914062 111.765625 L 151.207031 112.089844 C 150.617188 112.371094 150.085938 112.605469 149.496094 112.886719 C 143.769531 115.546875 137.789062 117.960938 132.035156 120.339844 L 130.976562 120.800781 C 127.921875 122.085938 124.816406 123.308594 121.761719 124.59375 L 117.710938 126.289062 C 111.132812 129.039062 105.613281 131.328125 100.039062 133.609375 L 99.984375 133.605469 L 99.449219 133.890625 C 99.152344 134.03125 98.914062 134.179688 98.613281 134.375 L 98.550781 134.425781 C 97.539062 135.003906 96.585938 135.53125 95.683594 136.121094 L 95.558594 136.222656 C 95.109375 136.800781 94.609375 137.316406 94.109375 137.832031 L 93.859375 138.089844 C 92.40625 139.699219 91.023438 141.199219 90 143.019531 C 89.046875 144.730469 88.585938 146.601562 88.128906 148.417969 L 88.03125 148.859375 L 88.023438 148.917969 C 87.988281 155.171875 87.210938 161.46875 86.398438 167.589844 C 86.09375 170.15625 85.765625 172.378906 85.546875 174.667969 C 84.484375 184.546875 83.097656 194.28125 81.914062 202.453125 L 81.910156 202.511719 L 81.902344 202.566406 C 81.949219 203.246094 81.882812 203.972656 81.703125 204.632812 L 81.6875 204.800781 L 81.785156 204.980469 C 82.335938 206.273438 83.46875 207.394531 84.933594 207.988281 C 85.800781 208.351562 86.695312 208.4375 87.695312 208.59375 L 87.75 208.597656 C 88.585938 208.679688 89.3125 208.746094 90.078125 208.992188 L 90.191406 209 L 90.308594 208.957031 C 91.574219 208.683594 92.847656 208.355469 94.183594 207.917969 C 95.882812 207.238281 97.40625 206.652344 98.984375 206.070312 C 102.222656 204.632812 105.492188 202.863281 108.640625 201.191406 L 108.882812 201.046875 C 110.425781 200.234375 112.152344 199.273438 113.757812 198.414062 C 116.070312 197.226562 118.394531 195.929688 120.648438 194.738281 L 121.125 194.5 C 126.773438 191.433594 132.605469 188.21875 138.582031 185.863281 L 138.707031 185.761719 C 140.035156 184.820312 141.484375 183.832031 142.875 182.835938 C 143.207031 175.3125 143.628906 167.96875 144.167969 160.632812 C 144.179688 160.523438 144.195312 160.355469 144.261719 160.25 L 144.332031 160.085938 L 144.292969 159.914062 C 143.488281 155.382812 144.367188 151.519531 146.8125 148.371094 C 150.535156 143.65625 157.601562 141.121094 165.058594 139.753906 C 165.183594 138.46875 165.300781 137.242188 165.421875 136.011719 C 165.667969 133.441406 165.808594 130.804688 165.964844 128 C 166.355469 122.796875 166.621094 117.070312 167.804688 111.828125 Z M 94.121094 153.507812 C 92.210938 151.125 93.75 148 95.359375 145.902344 C 98 142.492188 105.359375 138.070312 108.90625 142.808594 C 110.707031 145.179688 109.535156 148.5625 107.8125 150.652344 C 106.984375 151.644531 105.9375 152.558594 104.789062 153.347656 C 104.121094 153.847656 103.398438 154.34375 102.691406 154.667969 C 100.042969 155.824219 96.136719 156.011719 94.121094 153.507812 Z M 105.34375 192.699219 C 104.40625 195.992188 102.121094 199.269531 98.828125 200.078125 C 97.5 200.402344 96.277344 200.226562 95.316406 199.683594 C 93.980469 199.5 92.800781 198.878906 92.085938 197.511719 C 90.9375 195.371094 91.679688 192.964844 92.875 191.050781 C 94.082031 189.078125 96.121094 187.1875 98.425781 186.113281 C 99.683594 185.332031 101.078125 184.902344 102.355469 185.082031 C 102.582031 185.105469 102.742188 185.175781 102.898438 185.304688 C 102.957031 185.308594 103.011719 185.316406 103.066406 185.320312 C 103.179688 185.332031 103.234375 185.335938 103.339844 185.402344 C 103.339844 185.402344 103.398438 185.410156 103.398438 185.410156 C 104.988281 185.84375 106.285156 187.039062 106.445312 188.859375 C 106.597656 190.226562 106.078125 191.53125 105.34375 192.699219 Z M 131.921875 163.121094 C 129.851562 164.726562 127.035156 165.863281 124.359375 165.550781 C 121.238281 165.191406 119.757812 162.402344 120.707031 159.5625 C 121.273438 157.8125 122.398438 156.058594 123.832031 154.617188 C 125.554688 151.964844 128.292969 149.859375 130.929688 150 C 133.957031 150.179688 136 152.96875 135.886719 155.890625 C 135.730469 158.695312 134.058594 161.410156 131.921875 163.121094 Z M 135.878906 167.109375 C 135.179688 166.761719 134.972656 165.386719 133.976562 163.429688 C 136.203125 164.320312 137.40625 164.71875 138.472656 165.328125 C 138.898438 165.597656 138.929688 166.445312 139.15625 167.03125 C 138.078125 167.09375 136.796875 167.535156 135.878906 167.109375 Z M 162.300781 121.558594 C 160.917969 125.375 156.621094 128.457031 152.664062 129.144531 C 150.433594 129.496094 147.820312 129.128906 146.671875 126.992188 C 145.660156 125.203125 146.339844 122.84375 147.394531 121.253906 C 148.242188 120.039062 149.304688 118.957031 150.625 118.125 C 152.3125 116.425781 154.417969 115.050781 156.285156 114.382812 C 161.125 112.707031 163.84375 117.253906 162.300781 121.558594 Z M 275.832031 268.53125 C 275.015625 267.664062 274.390625 266.53125 273.863281 265.578125 C 273.242188 264.390625 272.6875 263.152344 272.105469 261.574219 L 272.054688 261.515625 L 272.003906 261.453125 C 271.351562 260.601562 270.804688 259.871094 270.257812 259.085938 L 270.207031 259.023438 L 270.15625 258.964844 C 269.894531 258.769531 269.6875 258.582031 269.429688 258.332031 C 270.039062 260.191406 270.609375 261.882812 271.183594 263.515625 C 270.792969 263.480469 270.21875 263.59375 270.066406 263.410156 C 268.691406 261.304688 267.378906 259.148438 266.007812 256.984375 C 266.632812 256.933594 267.253906 256.9375 267.878906 256.882812 C 267.3125 256.324219 266.800781 255.765625 266.242188 255.148438 L 266.140625 255.027344 L 265.972656 255.007812 C 265.753906 254.933594 265.535156 254.855469 265.378906 254.726562 C 264.601562 254.03125 263.957031 253.125 263.394531 251.941406 L 263.347656 251.824219 L 263.242188 251.757812 C 261.949219 250.5625 260.539062 249.976562 258.695312 249.796875 C 257.355469 249.667969 255.820312 249.804688 254.5625 249.964844 C 254.507812 249.960938 254.453125 249.953125 254.339844 249.945312 C 254.285156 249.9375 254.230469 249.933594 254.171875 249.925781 L 253.957031 249.851562 L 253.777344 249.945312 C 249.46875 251.957031 243.914062 252.265625 239.433594 252.566406 C 229.453125 253.1875 220.441406 253.671875 211.414062 253.761719 C 209.835938 253.78125 208.363281 253.863281 206.996094 254.011719 C 199.996094 254.691406 188.898438 255.203125 184.140625 255.421875 L 182.785156 255.460938 L 182.730469 255.457031 C 176.4375 256.992188 169.503906 258.1875 160.257812 259.382812 C 159.335938 259.574219 158.402344 259.878906 157.851562 260.335938 C 157.175781 260.945312 157.042969 261.722656 157.453125 262.722656 L 157.503906 262.78125 L 157.554688 262.84375 C 160.359375 265.933594 163.421875 268.652344 166.078125 270.9375 C 173.628906 277.414062 182.65625 279.070312 190.476562 279.824219 C 191.144531 279.890625 191.871094 279.960938 192.542969 280.023438 C 201.375 280.761719 210.976562 281.175781 221.839844 281.320312 C 226.007812 281.382812 258.148438 278.894531 266.925781 275.566406 C 267.394531 275.386719 267.800781 275.257812 268.152344 275.121094 L 268.207031 275.125 L 269.164062 274.542969 C 271.621094 273.03125 274.140625 271.46875 275.75 269.367188 L 276.011719 269 Z M 166.824219 264.917969 C 165.566406 264.515625 162.402344 263.421875 162.28125 261.777344 C 162.175781 260.527344 164.347656 260.226562 165.207031 260.085938 C 167.492188 259.742188 169.855469 259.796875 172.160156 259.851562 C 173.511719 259.867188 174.859375 259.941406 176.253906 260.074219 C 177.539062 260.199219 188.484375 260.6875 191.820312 262.925781 C 192.878906 263.648438 191.214844 264.503906 190.636719 264.675781 C 189.539062 264.960938 188.398438 265.078125 187.253906 265.25 C 184.566406 265.667969 181.84375 265.855469 179.125 265.992188 C 175.046875 266.160156 170.761719 266.199219 166.824219 264.917969 Z M 176.925781 271.246094 C 175.886719 270.921875 173.269531 269.992188 173.175781 268.632812 C 173.105469 267.609375 174.878906 267.328125 175.621094 267.230469 C 177.507812 266.960938 179.480469 266.984375 181.394531 267 C 182.515625 267.050781 183.640625 267.101562 184.753906 267.207031 C 185.816406 267.3125 194.90625 267.734375 197.71875 269.582031 C 198.617188 270.179688 197.199219 270.886719 196.734375 271.011719 C 195.808594 271.261719 194.84375 271.335938 193.929688 271.472656 C 191.695312 271.824219 189.425781 272 187.164062 272.0625 C 183.820312 272.25 180.207031 272.296875 176.925781 271.246094 Z M 204.511719 277.453125 C 203.59375 277.648438 202.675781 277.785156 201.761719 277.921875 C 199.53125 278.273438 197.316406 278.453125 195.054688 278.515625 C 191.660156 278.640625 188.152344 278.753906 184.878906 277.652344 C 183.839844 277.324219 181.222656 276.398438 181.121094 275.089844 C 181.050781 274.070312 182.824219 273.789062 183.511719 273.6875 C 185.398438 273.417969 187.371094 273.4375 189.222656 273.503906 C 190.34375 273.554688 191.46875 273.605469 192.585938 273.714844 C 193.644531 273.816406 202.679688 274.234375 205.441406 276.019531 C 206.339844 276.617188 204.976562 277.328125 204.511719 277.453125 Z M 261.941406 256.480469 C 262.160156 256.558594 262.214844 257.75 262.160156 257.742188 C 261.226562 258.046875 260.304688 258.242188 259.152344 258.523438 C 258.710938 257.242188 258.351562 256.304688 258.039062 255.429688 C 259.359375 255.78125 260.6875 256.023438 261.941406 256.480469 Z M 221.882812 262.15625 C 220.625 261.753906 217.460938 260.660156 217.335938 259.011719 C 217.230469 257.761719 219.402344 257.460938 220.261719 257.320312 C 222.550781 256.976562 224.910156 257.035156 227.214844 257.085938 C 228.566406 257.105469 229.914062 257.175781 231.308594 257.3125 C 232.59375 257.433594 243.539062 257.925781 246.875 260.164062 C 247.933594 260.886719 246.273438 261.738281 245.691406 261.910156 C 244.59375 262.199219 243.453125 262.3125 242.3125 262.484375 C 239.621094 262.902344 236.898438 263.09375 234.179688 263.226562 C 230.105469 263.398438 225.8125 263.492188 221.882812 262.15625 Z M 231.980469 268.484375 C 230.941406 268.15625 228.328125 267.230469 228.230469 265.867188 C 228.160156 264.847656 229.933594 264.566406 230.679688 264.46875 C 232.5625 264.199219 234.535156 264.21875 236.449219 264.234375 C 237.570312 264.285156 238.695312 264.335938 239.8125 264.445312 C 240.871094 264.546875 249.964844 264.96875 252.773438 266.820312 C 253.675781 267.414062 252.253906 268.121094 251.789062 268.246094 C 250.863281 268.496094 249.898438 268.574219 248.984375 268.710938 C 246.75 269.058594 244.480469 269.234375 242.21875 269.300781 C 238.871094 269.539062 235.257812 269.589844 231.980469 268.484375 Z M 259.5625 274.746094 C 258.644531 274.9375 257.726562 275.078125 256.8125 275.214844 C 254.582031 275.5625 252.367188 275.746094 250.105469 275.808594 C 246.710938 275.933594 243.203125 276.046875 239.929688 274.941406 C 238.890625 274.617188 236.273438 273.6875 236.171875 272.382812 C 236.101562 271.359375 237.875 271.082031 238.5625 270.976562 C 240.449219 270.707031 242.417969 270.726562 244.273438 270.792969 C 245.394531 270.84375 246.519531 270.898438 247.636719 271.003906 C 248.695312 271.105469 257.730469 271.523438 260.492188 273.3125 C 261.449219 273.914062 260.027344 274.621094 259.5625 274.746094 Z M 98.875 150.976562 C 98.660156 151.460938 98.230469 151.816406 97.902344 152.292969 C 97.59375 151.980469 97.34375 151.675781 96.828125 151.171875 C 97.488281 150.730469 97.914062 150.433594 98.335938 150.132812 C 98.539062 150.378906 98.945312 150.8125 98.875 150.976562 Z M 101.355469 148.621094 C 100.855469 148.574219 100.386719 148.132812 99.433594 147.535156 C 100.441406 147.011719 100.933594 146.550781 101.445312 146.542969 C 101.777344 146.574219 102.277344 147.242188 102.289062 147.695312 C 102.3125 148.035156 101.636719 148.648438 101.355469 148.621094 Z M 101.355469 148.621094 " fill-opacity="1" fill-rule="nonzero"/></g></g></g></g></svg>